<svg width="311" height="48" viewBox="0 0 311 48" fill="none" xmlns="http://www.w3.org/2000/svg">
<g filter="url(#filter0_d)">
<rect x="4" width="303" height="40" rx="20" fill="#FC6238"/>
<path d="M33.712 13.49V15.164H28.402V18.854H32.542V20.528H28.402V26H26.35V13.49H33.712ZM34.9297 20.996C34.9297 20 35.1337 19.118 35.5417 18.35C35.9617 17.582 36.5257 16.988 37.2337 16.568C37.9537 16.136 38.7457 15.92 39.6097 15.92C40.3897 15.92 41.0677 16.076 41.6437 16.388C42.2317 16.688 42.6997 17.066 43.0477 17.522V16.082H45.1177V26H43.0477V24.524C42.6997 24.992 42.2257 25.382 41.6257 25.694C41.0257 26.006 40.3417 26.162 39.5737 26.162C38.7217 26.162 37.9417 25.946 37.2337 25.514C36.5257 25.07 35.9617 24.458 35.5417 23.678C35.1337 22.886 34.9297 21.992 34.9297 20.996ZM43.0477 21.032C43.0477 20.348 42.9037 19.754 42.6157 19.25C42.3397 18.746 41.9737 18.362 41.5177 18.098C41.0617 17.834 40.5697 17.702 40.0417 17.702C39.5137 17.702 39.0217 17.834 38.5657 18.098C38.1097 18.35 37.7377 18.728 37.4497 19.232C37.1737 19.724 37.0357 20.312 37.0357 20.996C37.0357 21.68 37.1737 22.28 37.4497 22.796C37.7377 23.312 38.1097 23.708 38.5657 23.984C39.0337 24.248 39.5257 24.38 40.0417 24.38C40.5697 24.38 41.0617 24.248 41.5177 23.984C41.9737 23.72 42.3397 23.336 42.6157 22.832C42.9037 22.316 43.0477 21.716 43.0477 21.032ZM51.7369 21.05L56.3089 26H53.5369L49.8649 21.734V26H47.8129V12.68H49.8649V20.42L53.4649 16.082H56.3089L51.7369 21.05ZM66.7617 16.082V26H64.7097V24.83C64.3857 25.238 63.9597 25.562 63.4317 25.802C62.9157 26.03 62.3637 26.144 61.7757 26.144C60.9957 26.144 60.2937 25.982 59.6697 25.658C59.0577 25.334 58.5717 24.854 58.2117 24.218C57.8637 23.582 57.6897 22.814 57.6897 21.914V16.082H59.7237V21.608C59.7237 22.496 59.9457 23.18 60.3897 23.66C60.8337 24.128 61.4397 24.362 62.2077 24.362C62.9757 24.362 63.5817 24.128 64.0257 23.66C64.4817 23.18 64.7097 22.496 64.7097 21.608V16.082H66.7617ZM71.5211 12.68V26H69.4691V12.68H71.5211ZM76.6092 17.756V23.246C76.6092 23.618 76.6932 23.888 76.8612 24.056C77.0412 24.212 77.3412 24.29 77.7612 24.29H79.0212V26H77.4012C76.4772 26 75.7692 25.784 75.2772 25.352C74.7852 24.92 74.5392 24.218 74.5392 23.246V17.756H73.3692V16.082H74.5392V13.616H76.6092V16.082H79.0212V17.756H76.6092ZM80.2285 20.996C80.2285 20 80.4325 19.118 80.8405 18.35C81.2605 17.582 81.8245 16.988 82.5325 16.568C83.2525 16.136 84.0445 15.92 84.9085 15.92C85.6885 15.92 86.3665 16.076 86.9425 16.388C87.5305 16.688 87.9985 17.066 88.3465 17.522V16.082H90.4165V26H88.3465V24.524C87.9985 24.992 87.5245 25.382 86.9245 25.694C86.3245 26.006 85.6405 26.162 84.8725 26.162C84.0205 26.162 83.2405 25.946 82.5325 25.514C81.8245 25.07 81.2605 24.458 80.8405 23.678C80.4325 22.886 80.2285 21.992 80.2285 20.996ZM88.3465 21.032C88.3465 20.348 88.2025 19.754 87.9145 19.25C87.6385 18.746 87.2725 18.362 86.8165 18.098C86.3605 17.834 85.8685 17.702 85.3405 17.702C84.8125 17.702 84.3205 17.834 83.8645 18.098C83.4085 18.35 83.0365 18.728 82.7485 19.232C82.4725 19.724 82.3345 20.312 82.3345 20.996C82.3345 21.68 82.4725 22.28 82.7485 22.796C83.0365 23.312 83.4085 23.708 83.8645 23.984C84.3325 24.248 84.8245 24.38 85.3405 24.38C85.8685 24.38 86.3605 24.248 86.8165 23.984C87.2725 23.72 87.6385 23.336 87.9145 22.832C88.2025 22.316 88.3465 21.716 88.3465 21.032ZM96.7117 26.162C95.9317 26.162 95.2297 26.024 94.6057 25.748C93.9937 25.46 93.5077 25.076 93.1477 24.596C92.7877 24.104 92.5957 23.558 92.5717 22.958H94.6957C94.7317 23.378 94.9297 23.732 95.2897 24.02C95.6617 24.296 96.1237 24.434 96.6757 24.434C97.2517 24.434 97.6957 24.326 98.0077 24.11C98.3317 23.882 98.4937 23.594 98.4937 23.246C98.4937 22.874 98.3137 22.598 97.9537 22.418C97.6057 22.238 97.0477 22.04 96.2797 21.824C95.5357 21.62 94.9297 21.422 94.4617 21.23C93.9937 21.038 93.5857 20.744 93.2377 20.348C92.9017 19.952 92.7337 19.43 92.7337 18.782C92.7337 18.254 92.8897 17.774 93.2017 17.342C93.5137 16.898 93.9577 16.55 94.5337 16.298C95.1217 16.046 95.7937 15.92 96.5497 15.92C97.6777 15.92 98.5837 16.208 99.2677 16.784C99.9637 17.348 100.336 18.122 100.384 19.106H98.3317C98.2957 18.662 98.1157 18.308 97.7917 18.044C97.4677 17.78 97.0297 17.648 96.4777 17.648C95.9377 17.648 95.5237 17.75 95.2357 17.954C94.9477 18.158 94.8037 18.428 94.8037 18.764C94.8037 19.028 94.8997 19.25 95.0917 19.43C95.2837 19.61 95.5177 19.754 95.7937 19.862C96.0697 19.958 96.4777 20.084 97.0177 20.24C97.7377 20.432 98.3257 20.63 98.7817 20.834C99.2497 21.026 99.6517 21.314 99.9877 21.698C100.324 22.082 100.498 22.592 100.51 23.228C100.51 23.792 100.354 24.296 100.042 24.74C99.7297 25.184 99.2857 25.532 98.7097 25.784C98.1457 26.036 97.4797 26.162 96.7117 26.162ZM109.455 15.146V18.818H113.775V20.492H109.455V24.326H114.315V26H107.403V13.472H114.315V15.146H109.455ZM120.766 21.05L125.338 26H122.566L118.894 21.734V26H116.842V12.68H118.894V20.42L122.494 16.082H125.338L120.766 21.05ZM131.111 26.162C130.175 26.162 129.329 25.952 128.573 25.532C127.817 25.1 127.223 24.5 126.791 23.732C126.359 22.952 126.143 22.052 126.143 21.032C126.143 20.024 126.365 19.13 126.809 18.35C127.253 17.57 127.859 16.97 128.627 16.55C129.395 16.13 130.253 15.92 131.201 15.92C132.149 15.92 133.007 16.13 133.775 16.55C134.543 16.97 135.149 17.57 135.593 18.35C136.037 19.13 136.259 20.024 136.259 21.032C136.259 22.04 136.031 22.934 135.575 23.714C135.119 24.494 134.495 25.1 133.703 25.532C132.923 25.952 132.059 26.162 131.111 26.162ZM131.111 24.38C131.639 24.38 132.131 24.254 132.587 24.002C133.055 23.75 133.433 23.372 133.721 22.868C134.009 22.364 134.153 21.752 134.153 21.032C134.153 20.312 134.015 19.706 133.739 19.214C133.463 18.71 133.097 18.332 132.641 18.08C132.185 17.828 131.693 17.702 131.165 17.702C130.637 17.702 130.145 17.828 129.689 18.08C129.245 18.332 128.891 18.71 128.627 19.214C128.363 19.706 128.231 20.312 128.231 21.032C128.231 22.1 128.501 22.928 129.041 23.516C129.593 24.092 130.283 24.38 131.111 24.38ZM143.292 15.92C144.072 15.92 144.768 16.082 145.38 16.406C146.004 16.73 146.49 17.21 146.838 17.846C147.186 18.482 147.36 19.25 147.36 20.15V26H145.326V20.456C145.326 19.568 145.104 18.89 144.66 18.422C144.216 17.942 143.61 17.702 142.842 17.702C142.074 17.702 141.462 17.942 141.006 18.422C140.562 18.89 140.34 19.568 140.34 20.456V26H138.288V16.082H140.34V17.216C140.676 16.808 141.102 16.49 141.618 16.262C142.146 16.034 142.704 15.92 143.292 15.92ZM154.279 26.162C153.343 26.162 152.497 25.952 151.741 25.532C150.985 25.1 150.391 24.5 149.959 23.732C149.527 22.952 149.311 22.052 149.311 21.032C149.311 20.024 149.533 19.13 149.977 18.35C150.421 17.57 151.027 16.97 151.795 16.55C152.563 16.13 153.421 15.92 154.369 15.92C155.317 15.92 156.175 16.13 156.943 16.55C157.711 16.97 158.317 17.57 158.761 18.35C159.205 19.13 159.427 20.024 159.427 21.032C159.427 22.04 159.199 22.934 158.743 23.714C158.287 24.494 157.663 25.1 156.871 25.532C156.091 25.952 155.227 26.162 154.279 26.162ZM154.279 24.38C154.807 24.38 155.299 24.254 155.755 24.002C156.223 23.75 156.601 23.372 156.889 22.868C157.177 22.364 157.321 21.752 157.321 21.032C157.321 20.312 157.183 19.706 156.907 19.214C156.631 18.71 156.265 18.332 155.809 18.08C155.353 17.828 154.861 17.702 154.333 17.702C153.805 17.702 153.313 17.828 152.857 18.08C152.413 18.332 152.059 18.71 151.795 19.214C151.531 19.706 151.399 20.312 151.399 21.032C151.399 22.1 151.669 22.928 152.209 23.516C152.761 24.092 153.451 24.38 154.279 24.38ZM173.461 15.92C174.241 15.92 174.937 16.082 175.549 16.406C176.173 16.73 176.659 17.21 177.007 17.846C177.367 18.482 177.547 19.25 177.547 20.15V26H175.513V20.456C175.513 19.568 175.291 18.89 174.847 18.422C174.403 17.942 173.797 17.702 173.029 17.702C172.261 17.702 171.649 17.942 171.193 18.422C170.749 18.89 170.527 19.568 170.527 20.456V26H168.493V20.456C168.493 19.568 168.271 18.89 167.827 18.422C167.383 17.942 166.777 17.702 166.009 17.702C165.241 17.702 164.629 17.942 164.173 18.422C163.729 18.89 163.507 19.568 163.507 20.456V26H161.455V16.082H163.507V17.216C163.843 16.808 164.269 16.49 164.785 16.262C165.301 16.034 165.853 15.92 166.441 15.92C167.233 15.92 167.941 16.088 168.565 16.424C169.189 16.76 169.669 17.246 170.005 17.882C170.305 17.282 170.773 16.808 171.409 16.46C172.045 16.1 172.729 15.92 173.461 15.92ZM181.203 14.768C180.831 14.768 180.519 14.642 180.267 14.39C180.015 14.138 179.889 13.826 179.889 13.454C179.889 13.082 180.015 12.77 180.267 12.518C180.519 12.266 180.831 12.14 181.203 12.14C181.563 12.14 181.869 12.266 182.121 12.518C182.373 12.77 182.499 13.082 182.499 13.454C182.499 13.826 182.373 14.138 182.121 14.39C181.869 14.642 181.563 14.768 181.203 14.768ZM182.211 16.082V26H180.159V16.082H182.211ZM188.896 20.996C188.896 20 189.1 19.118 189.508 18.35C189.928 17.582 190.492 16.988 191.2 16.568C191.92 16.136 192.718 15.92 193.594 15.92C194.242 15.92 194.878 16.064 195.502 16.352C196.138 16.628 196.642 17 197.014 17.468V12.68H199.084V26H197.014V24.506C196.678 24.986 196.21 25.382 195.61 25.694C195.022 26.006 194.344 26.162 193.576 26.162C192.712 26.162 191.92 25.946 191.2 25.514C190.492 25.07 189.928 24.458 189.508 23.678C189.1 22.886 188.896 21.992 188.896 20.996ZM197.014 21.032C197.014 20.348 196.87 19.754 196.582 19.25C196.306 18.746 195.94 18.362 195.484 18.098C195.028 17.834 194.536 17.702 194.008 17.702C193.48 17.702 192.988 17.834 192.532 18.098C192.076 18.35 191.704 18.728 191.416 19.232C191.14 19.724 191.002 20.312 191.002 20.996C191.002 21.68 191.14 22.28 191.416 22.796C191.704 23.312 192.076 23.708 192.532 23.984C193 24.248 193.492 24.38 194.008 24.38C194.536 24.38 195.028 24.248 195.484 23.984C195.94 23.72 196.306 23.336 196.582 22.832C196.87 22.316 197.014 21.716 197.014 21.032ZM201.096 20.996C201.096 20 201.3 19.118 201.708 18.35C202.128 17.582 202.692 16.988 203.4 16.568C204.12 16.136 204.912 15.92 205.776 15.92C206.556 15.92 207.234 16.076 207.81 16.388C208.398 16.688 208.866 17.066 209.214 17.522V16.082H211.284V26H209.214V24.524C208.866 24.992 208.392 25.382 207.792 25.694C207.192 26.006 206.508 26.162 205.74 26.162C204.888 26.162 204.108 25.946 203.4 25.514C202.692 25.07 202.128 24.458 201.708 23.678C201.3 22.886 201.096 21.992 201.096 20.996ZM209.214 21.032C209.214 20.348 209.07 19.754 208.782 19.25C208.506 18.746 208.14 18.362 207.684 18.098C207.228 17.834 206.736 17.702 206.208 17.702C205.68 17.702 205.188 17.834 204.732 18.098C204.276 18.35 203.904 18.728 203.616 19.232C203.34 19.724 203.202 20.312 203.202 20.996C203.202 21.68 203.34 22.28 203.616 22.796C203.904 23.312 204.276 23.708 204.732 23.984C205.2 24.248 205.692 24.38 206.208 24.38C206.736 24.38 207.228 24.248 207.684 23.984C208.14 23.72 208.506 23.336 208.782 22.832C209.07 22.316 209.214 21.716 209.214 21.032ZM218.983 15.92C219.763 15.92 220.459 16.082 221.071 16.406C221.695 16.73 222.181 17.21 222.529 17.846C222.877 18.482 223.051 19.25 223.051 20.15V26H221.017V20.456C221.017 19.568 220.795 18.89 220.351 18.422C219.907 17.942 219.301 17.702 218.533 17.702C217.765 17.702 217.153 17.942 216.697 18.422C216.253 18.89 216.031 19.568 216.031 20.456V26H213.979V16.082H216.031V17.216C216.367 16.808 216.793 16.49 217.309 16.262C217.837 16.034 218.395 15.92 218.983 15.92ZM237.04 19.574C237.712 19.694 238.282 20.048 238.75 20.636C239.218 21.224 239.452 21.89 239.452 22.634C239.452 23.27 239.284 23.846 238.948 24.362C238.624 24.866 238.15 25.268 237.526 25.568C236.902 25.856 236.176 26 235.348 26H230.344V13.49H235.114C235.966 13.49 236.698 13.634 237.31 13.922C237.922 14.21 238.384 14.6 238.696 15.092C239.008 15.572 239.164 16.112 239.164 16.712C239.164 17.432 238.972 18.032 238.588 18.512C238.204 18.992 237.688 19.346 237.04 19.574ZM232.396 18.746H234.934C235.606 18.746 236.128 18.596 236.5 18.296C236.884 17.984 237.076 17.54 237.076 16.964C237.076 16.4 236.884 15.962 236.5 15.65C236.128 15.326 235.606 15.164 234.934 15.164H232.396V18.746ZM235.168 24.326C235.864 24.326 236.41 24.158 236.806 23.822C237.202 23.486 237.4 23.018 237.4 22.418C237.4 21.806 237.19 21.32 236.77 20.96C236.35 20.6 235.792 20.42 235.096 20.42H232.396V24.326H235.168ZM242.726 14.768C242.354 14.768 242.042 14.642 241.79 14.39C241.538 14.138 241.412 13.826 241.412 13.454C241.412 13.082 241.538 12.77 241.79 12.518C242.042 12.266 242.354 12.14 242.726 12.14C243.086 12.14 243.392 12.266 243.644 12.518C243.896 12.77 244.022 13.082 244.022 13.454C244.022 13.826 243.896 14.138 243.644 14.39C243.392 14.642 243.086 14.768 242.726 14.768ZM243.734 16.082V26H241.682V16.082H243.734ZM250.028 26.162C249.248 26.162 248.546 26.024 247.922 25.748C247.31 25.46 246.824 25.076 246.464 24.596C246.104 24.104 245.912 23.558 245.888 22.958H248.012C248.048 23.378 248.246 23.732 248.606 24.02C248.978 24.296 249.44 24.434 249.992 24.434C250.568 24.434 251.012 24.326 251.324 24.11C251.648 23.882 251.81 23.594 251.81 23.246C251.81 22.874 251.63 22.598 251.27 22.418C250.922 22.238 250.364 22.04 249.596 21.824C248.852 21.62 248.246 21.422 247.778 21.23C247.31 21.038 246.902 20.744 246.554 20.348C246.218 19.952 246.05 19.43 246.05 18.782C246.05 18.254 246.206 17.774 246.518 17.342C246.83 16.898 247.274 16.55 247.85 16.298C248.438 16.046 249.11 15.92 249.866 15.92C250.994 15.92 251.9 16.208 252.584 16.784C253.28 17.348 253.652 18.122 253.7 19.106H251.648C251.612 18.662 251.432 18.308 251.108 18.044C250.784 17.78 250.346 17.648 249.794 17.648C249.254 17.648 248.84 17.75 248.552 17.954C248.264 18.158 248.12 18.428 248.12 18.764C248.12 19.028 248.216 19.25 248.408 19.43C248.6 19.61 248.834 19.754 249.11 19.862C249.386 19.958 249.794 20.084 250.334 20.24C251.054 20.432 251.642 20.63 252.098 20.834C252.566 21.026 252.968 21.314 253.304 21.698C253.64 22.082 253.814 22.592 253.826 23.228C253.826 23.792 253.67 24.296 253.358 24.74C253.046 25.184 252.602 25.532 252.026 25.784C251.462 26.036 250.796 26.162 250.028 26.162ZM261.047 15.92C261.827 15.92 262.523 16.082 263.135 16.406C263.759 16.73 264.245 17.21 264.593 17.846C264.941 18.482 265.115 19.25 265.115 20.15V26H263.081V20.456C263.081 19.568 262.859 18.89 262.415 18.422C261.971 17.942 261.365 17.702 260.597 17.702C259.829 17.702 259.217 17.942 258.761 18.422C258.317 18.89 258.095 19.568 258.095 20.456V26H256.043V16.082H258.095V17.216C258.431 16.808 258.857 16.49 259.373 16.262C259.901 16.034 260.459 15.92 261.047 15.92ZM268.777 14.768C268.405 14.768 268.093 14.642 267.841 14.39C267.589 14.138 267.463 13.826 267.463 13.454C267.463 13.082 267.589 12.77 267.841 12.518C268.093 12.266 268.405 12.14 268.777 12.14C269.137 12.14 269.443 12.266 269.695 12.518C269.947 12.77 270.073 13.082 270.073 13.454C270.073 13.826 269.947 14.138 269.695 14.39C269.443 14.642 269.137 14.768 268.777 14.768ZM269.785 16.082V26H267.733V16.082H269.785ZM276.079 26.162C275.299 26.162 274.597 26.024 273.973 25.748C273.361 25.46 272.875 25.076 272.515 24.596C272.155 24.104 271.963 23.558 271.939 22.958H274.063C274.099 23.378 274.297 23.732 274.657 24.02C275.029 24.296 275.491 24.434 276.043 24.434C276.619 24.434 277.063 24.326 277.375 24.11C277.699 23.882 277.861 23.594 277.861 23.246C277.861 22.874 277.681 22.598 277.321 22.418C276.973 22.238 276.415 22.04 275.647 21.824C274.903 21.62 274.297 21.422 273.829 21.23C273.361 21.038 272.953 20.744 272.605 20.348C272.269 19.952 272.101 19.43 272.101 18.782C272.101 18.254 272.257 17.774 272.569 17.342C272.881 16.898 273.325 16.55 273.901 16.298C274.489 16.046 275.161 15.92 275.917 15.92C277.045 15.92 277.951 16.208 278.635 16.784C279.331 17.348 279.703 18.122 279.751 19.106H277.699C277.663 18.662 277.483 18.308 277.159 18.044C276.835 17.78 276.397 17.648 275.845 17.648C275.305 17.648 274.891 17.75 274.603 17.954C274.315 18.158 274.171 18.428 274.171 18.764C274.171 19.028 274.267 19.25 274.459 19.43C274.651 19.61 274.885 19.754 275.161 19.862C275.437 19.958 275.845 20.084 276.385 20.24C277.105 20.432 277.693 20.63 278.149 20.834C278.617 21.026 279.019 21.314 279.355 21.698C279.691 22.082 279.865 22.592 279.877 23.228C279.877 23.792 279.721 24.296 279.409 24.74C279.097 25.184 278.653 25.532 278.077 25.784C277.513 26.036 276.847 26.162 276.079 26.162Z" fill="white"/>
</g>
<defs>
<filter id="filter0_d" x="0" y="0" width="311" height="48" filterUnits="userSpaceOnUse" color-interpolation-filters="sRGB">
<feFlood flood-opacity="0" result="BackgroundImageFix"/>
<feColorMatrix in="SourceAlpha" type="matrix" values="0 0 0 0 0 0 0 0 0 0 0 0 0 0 0 0 0 0 127 0" result="hardAlpha"/>
<feOffset dy="4"/>
<feGaussianBlur stdDeviation="2"/>
<feComposite in2="hardAlpha" operator="out"/>
<feColorMatrix type="matrix" values="0 0 0 0 0 0 0 0 0 0 0 0 0 0 0 0 0 0 0.25 0"/>
<feBlend mode="normal" in2="BackgroundImageFix" result="effect1_dropShadow"/>
<feBlend mode="normal" in="SourceGraphic" in2="effect1_dropShadow" result="shape"/>
</filter>
</defs>
</svg>
