<svg width="960" height="1121" viewBox="0 0 960 1121" fill="none" xmlns="http://www.w3.org/2000/svg">
<g filter="url(#filter0_d)">
<path d="M219.269 932C218.128 930 219.572 927.514 221.874 927.514H253.162C255.465 927.514 256.909 930 255.768 932L240.124 959.43C238.973 961.449 236.063 961.449 234.912 959.43L219.269 932Z" fill="#FC6238"/>
<circle cx="237.519" cy="925.519" r="22.5187" fill="#FC6238"/>
<path d="M229.625 921.296V917.48H236.273V935H232.001V921.296H229.625ZM238.648 921.296V917.48H245.296V935H241.024V921.296H238.648Z" fill="white"/>
<path d="M507.269 1009C506.128 1007 507.572 1004.51 509.874 1004.51H541.162C543.465 1004.51 544.909 1007 543.768 1009L528.124 1036.43C526.973 1038.45 524.063 1038.45 522.912 1036.43L507.269 1009Z" fill="#FC6238"/>
<circle cx="525.519" cy="1002.52" r="22.5187" fill="#FC6238"/>
<path d="M514.332 998.296V994.48H520.98V1012H516.708V998.296H514.332ZM536.123 998.056H528.635V1001.37C528.955 1001.02 529.403 1000.73 529.979 1000.5C530.555 1000.28 531.179 1000.17 531.851 1000.17C533.051 1000.17 534.043 1000.44 534.827 1000.98C535.627 1001.53 536.211 1002.23 536.579 1003.1C536.947 1003.96 537.131 1004.9 537.131 1005.9C537.131 1007.78 536.603 1009.26 535.547 1010.37C534.491 1011.46 533.003 1012 531.083 1012C529.803 1012 528.691 1011.78 527.747 1011.35C526.803 1010.9 526.075 1010.29 525.563 1009.5C525.051 1008.72 524.771 1007.82 524.723 1006.79H528.731C528.827 1007.29 529.059 1007.7 529.427 1008.04C529.795 1008.36 530.299 1008.52 530.939 1008.52C531.691 1008.52 532.251 1008.28 532.619 1007.8C532.987 1007.32 533.171 1006.68 533.171 1005.88C533.171 1005.1 532.979 1004.5 532.595 1004.08C532.211 1003.66 531.651 1003.46 530.915 1003.46C530.371 1003.46 529.923 1003.59 529.571 1003.86C529.219 1004.12 528.987 1004.46 528.875 1004.9H524.915V994.456H536.123V998.056Z" fill="white"/>
<path d="M580.269 1023C579.128 1021 580.572 1018.51 582.874 1018.51H614.162C616.465 1018.51 617.909 1021 616.768 1023L601.124 1050.43C599.973 1052.45 597.063 1052.45 595.912 1050.43L580.269 1023Z" fill="#FC6238"/>
<circle cx="598.519" cy="1016.52" r="22.5187" fill="#FC6238"/>
<path d="M584.837 1013.42C584.901 1011.71 585.461 1010.39 586.517 1009.46C587.573 1008.54 589.005 1008.07 590.813 1008.07C592.013 1008.07 593.037 1008.28 593.885 1008.7C594.749 1009.11 595.397 1009.68 595.829 1010.4C596.277 1011.12 596.501 1011.93 596.501 1012.82C596.501 1013.88 596.237 1014.74 595.709 1015.42C595.181 1016.07 594.565 1016.52 593.861 1016.76V1016.86C594.773 1017.16 595.493 1017.66 596.021 1018.37C596.549 1019.07 596.813 1019.98 596.813 1021.08C596.813 1022.07 596.581 1022.95 596.117 1023.72C595.669 1024.47 595.005 1025.06 594.125 1025.5C593.261 1025.93 592.229 1026.14 591.029 1026.14C589.109 1026.14 587.573 1025.67 586.421 1024.73C585.285 1023.78 584.685 1022.36 584.621 1020.46H588.605C588.621 1021.16 588.821 1021.72 589.205 1022.14C589.589 1022.54 590.149 1022.74 590.885 1022.74C591.509 1022.74 591.989 1022.56 592.325 1022.21C592.677 1021.84 592.853 1021.36 592.853 1020.77C592.853 1020 592.605 1019.45 592.109 1019.11C591.629 1018.76 590.853 1018.58 589.781 1018.58H589.013V1015.25H589.781C590.597 1015.25 591.253 1015.11 591.749 1014.84C592.261 1014.55 592.517 1014.05 592.517 1013.33C592.517 1012.75 592.357 1012.3 592.037 1011.98C591.717 1011.66 591.277 1011.5 590.717 1011.5C590.109 1011.5 589.653 1011.69 589.349 1012.06C589.061 1012.42 588.893 1012.88 588.845 1013.42H584.837ZM599.321 1022.88V1019.57L606.905 1008.72H611.489V1019.33H613.457V1022.88H611.489V1026H607.385V1022.88H599.321ZM607.673 1013.23L603.641 1019.33H607.673V1013.23Z" fill="white"/>
<path d="M662.269 1070C661.128 1068 662.572 1065.51 664.874 1065.51H696.162C698.465 1065.51 699.909 1068 698.768 1070L683.124 1097.43C681.973 1099.45 679.063 1099.45 677.912 1097.43L662.269 1070Z" fill="#FC6238"/>
<circle cx="680.519" cy="1063.52" r="22.5187" fill="#FC6238"/>
<path d="M670.714 1059.3V1055.48H677.362V1073H673.09V1059.3H670.714ZM691.354 1058.55L685.33 1073H681.13L687.226 1059.01H679.762V1055.5H691.354V1058.55Z" fill="white"/>
<path d="M747.269 1084C746.128 1082 747.572 1079.51 749.874 1079.51H781.162C783.465 1079.51 784.909 1082 783.768 1084L768.124 1111.43C766.973 1113.45 764.063 1113.45 762.912 1111.43L747.269 1084Z" fill="#FC6238"/>
<circle cx="765.519" cy="1077.52" r="22.5187" fill="#FC6238"/>
<path d="M755.447 1074.42C755.511 1072.71 756.071 1071.39 757.127 1070.46C758.183 1069.54 759.615 1069.07 761.423 1069.07C762.623 1069.07 763.647 1069.28 764.495 1069.7C765.359 1070.11 766.007 1070.68 766.439 1071.4C766.887 1072.12 767.111 1072.93 767.111 1073.82C767.111 1074.88 766.847 1075.74 766.319 1076.42C765.791 1077.07 765.175 1077.52 764.471 1077.76V1077.86C765.383 1078.16 766.103 1078.66 766.631 1079.37C767.159 1080.07 767.423 1080.98 767.423 1082.08C767.423 1083.07 767.191 1083.95 766.727 1084.72C766.279 1085.47 765.615 1086.06 764.735 1086.5C763.871 1086.93 762.839 1087.14 761.639 1087.14C759.719 1087.14 758.183 1086.67 757.031 1085.73C755.895 1084.78 755.295 1083.36 755.231 1081.46H759.215C759.231 1082.16 759.431 1082.72 759.815 1083.14C760.199 1083.54 760.759 1083.74 761.495 1083.74C762.119 1083.74 762.599 1083.56 762.935 1083.21C763.287 1082.84 763.463 1082.36 763.463 1081.77C763.463 1081 763.215 1080.45 762.719 1080.11C762.239 1079.76 761.463 1079.58 760.391 1079.58H759.623V1076.25H760.391C761.207 1076.25 761.863 1076.11 762.359 1075.84C762.871 1075.55 763.127 1075.05 763.127 1074.33C763.127 1073.75 762.967 1073.3 762.647 1072.98C762.327 1072.66 761.887 1072.5 761.327 1072.5C760.719 1072.5 760.263 1072.69 759.959 1073.06C759.671 1073.42 759.503 1073.88 759.455 1074.42H755.447ZM769.402 1073.3V1069.48H776.05V1087H771.778V1073.3H769.402Z" fill="white"/>
<path d="M914.269 901C913.128 899 914.572 896.514 916.874 896.514H948.162C950.465 896.514 951.909 899 950.768 901L935.124 928.43C933.973 930.449 931.063 930.449 929.912 928.43L914.269 901Z" fill="#FC6238"/>
<circle cx="932.519" cy="894.519" r="22.5187" fill="#FC6238"/>
<path d="M920.103 891.424C920.167 889.712 920.727 888.392 921.783 887.464C922.839 886.536 924.271 886.072 926.079 886.072C927.279 886.072 928.303 886.28 929.151 886.696C930.015 887.112 930.663 887.68 931.095 888.4C931.543 889.12 931.767 889.928 931.767 890.824C931.767 891.88 931.503 892.744 930.975 893.416C930.447 894.072 929.831 894.52 929.127 894.76V894.856C930.039 895.16 930.759 895.664 931.287 896.368C931.815 897.072 932.079 897.976 932.079 899.08C932.079 900.072 931.847 900.952 931.383 901.72C930.935 902.472 930.271 903.064 929.391 903.496C928.527 903.928 927.495 904.144 926.295 904.144C924.375 904.144 922.839 903.672 921.687 902.728C920.551 901.784 919.951 900.36 919.887 898.456H923.871C923.887 899.16 924.087 899.72 924.471 900.136C924.855 900.536 925.415 900.736 926.151 900.736C926.775 900.736 927.255 900.56 927.591 900.208C927.943 899.84 928.119 899.36 928.119 898.768C928.119 898 927.871 897.448 927.375 897.112C926.895 896.76 926.119 896.584 925.047 896.584H924.279V893.248H925.047C925.863 893.248 926.519 893.112 927.015 892.84C927.527 892.552 927.783 892.048 927.783 891.328C927.783 890.752 927.623 890.304 927.303 889.984C926.983 889.664 926.543 889.504 925.983 889.504C925.375 889.504 924.919 889.688 924.615 890.056C924.327 890.424 924.159 890.88 924.111 891.424H920.103ZM934.346 900.712C934.89 900.28 935.138 900.08 935.09 900.112C936.658 898.816 937.89 897.752 938.786 896.92C939.698 896.088 940.466 895.216 941.09 894.304C941.714 893.392 942.026 892.504 942.026 891.64C942.026 890.984 941.874 890.472 941.57 890.104C941.266 889.736 940.81 889.552 940.202 889.552C939.594 889.552 939.114 889.784 938.762 890.248C938.426 890.696 938.258 891.336 938.258 892.168H934.298C934.33 890.808 934.618 889.672 935.162 888.76C935.722 887.848 936.45 887.176 937.346 886.744C938.258 886.312 939.266 886.096 940.37 886.096C942.274 886.096 943.706 886.584 944.666 887.56C945.642 888.536 946.13 889.808 946.13 891.376C946.13 893.088 945.546 894.68 944.378 896.152C943.21 897.608 941.722 899.032 939.914 900.424H946.394V903.76H934.346V900.712Z" fill="white"/>
<path d="M681.269 865C680.128 863 681.572 860.514 683.874 860.514H715.162C717.465 860.514 718.909 863 717.768 865L702.124 892.43C700.973 894.449 698.063 894.449 696.912 892.43L681.269 865Z" fill="#FC6238"/>
<circle cx="699.519" cy="858.519" r="22.5187" fill="#FC6238"/>
<path d="M686.13 855.424C686.194 853.712 686.754 852.392 687.81 851.464C688.866 850.536 690.298 850.072 692.106 850.072C693.306 850.072 694.33 850.28 695.178 850.696C696.042 851.112 696.69 851.68 697.122 852.4C697.57 853.12 697.794 853.928 697.794 854.824C697.794 855.88 697.53 856.744 697.002 857.416C696.474 858.072 695.858 858.52 695.154 858.76V858.856C696.066 859.16 696.786 859.664 697.314 860.368C697.842 861.072 698.106 861.976 698.106 863.08C698.106 864.072 697.874 864.952 697.41 865.72C696.962 866.472 696.298 867.064 695.418 867.496C694.554 867.928 693.522 868.144 692.322 868.144C690.402 868.144 688.866 867.672 687.714 866.728C686.578 865.784 685.978 864.36 685.914 862.456H689.898C689.914 863.16 690.114 863.72 690.498 864.136C690.882 864.536 691.442 864.736 692.178 864.736C692.802 864.736 693.282 864.56 693.618 864.208C693.97 863.84 694.146 863.36 694.146 862.768C694.146 862 693.898 861.448 693.402 861.112C692.922 860.76 692.146 860.584 691.074 860.584H690.306V857.248H691.074C691.89 857.248 692.546 857.112 693.042 856.84C693.554 856.552 693.81 856.048 693.81 855.328C693.81 854.752 693.65 854.304 693.33 853.984C693.01 853.664 692.57 853.504 692.01 853.504C691.402 853.504 690.946 853.688 690.642 854.056C690.354 854.424 690.186 854.88 690.138 855.424H686.13ZM700.518 859C700.518 856.248 701.046 854.08 702.102 852.496C703.174 850.912 704.894 850.12 707.262 850.12C709.63 850.12 711.342 850.912 712.398 852.496C713.47 854.08 714.006 856.248 714.006 859C714.006 861.784 713.47 863.968 712.398 865.552C711.342 867.136 709.63 867.928 707.262 867.928C704.894 867.928 703.174 867.136 702.102 865.552C701.046 863.968 700.518 861.784 700.518 859ZM709.974 859C709.974 857.384 709.798 856.144 709.446 855.28C709.094 854.4 708.366 853.96 707.262 853.96C706.158 853.96 705.43 854.4 705.078 855.28C704.726 856.144 704.55 857.384 704.55 859C704.55 860.088 704.614 860.992 704.742 861.712C704.87 862.416 705.126 862.992 705.51 863.44C705.91 863.872 706.494 864.088 707.262 864.088C708.03 864.088 708.606 863.872 708.99 863.44C709.39 862.992 709.654 862.416 709.782 861.712C709.91 860.992 709.974 860.088 709.974 859Z" fill="white"/>
<path d="M509.269 822C508.128 820 509.572 817.514 511.874 817.514H543.162C545.465 817.514 546.909 820 545.768 822L530.124 849.43C528.973 851.449 526.063 851.449 524.912 849.43L509.269 822Z" fill="#FC6238"/>
<circle cx="527.519" cy="815.519" r="22.5187" fill="#FC6238"/>
<path d="M516.871 811.296V807.48H523.519V825H519.247V811.296H516.871ZM526.47 812.424C526.534 810.712 527.094 809.392 528.15 808.464C529.206 807.536 530.638 807.072 532.446 807.072C533.646 807.072 534.67 807.28 535.518 807.696C536.382 808.112 537.03 808.68 537.462 809.4C537.91 810.12 538.134 810.928 538.134 811.824C538.134 812.88 537.87 813.744 537.342 814.416C536.814 815.072 536.198 815.52 535.494 815.76V815.856C536.406 816.16 537.126 816.664 537.654 817.368C538.182 818.072 538.446 818.976 538.446 820.08C538.446 821.072 538.214 821.952 537.75 822.72C537.302 823.472 536.638 824.064 535.758 824.496C534.894 824.928 533.862 825.144 532.662 825.144C530.742 825.144 529.206 824.672 528.054 823.728C526.918 822.784 526.318 821.36 526.254 819.456H530.238C530.254 820.16 530.454 820.72 530.838 821.136C531.222 821.536 531.782 821.736 532.518 821.736C533.142 821.736 533.622 821.56 533.958 821.208C534.31 820.84 534.486 820.36 534.486 819.768C534.486 819 534.238 818.448 533.742 818.112C533.262 817.76 532.486 817.584 531.414 817.584H530.646V814.248H531.414C532.23 814.248 532.886 814.112 533.382 813.84C533.894 813.552 534.15 813.048 534.15 812.328C534.15 811.752 533.99 811.304 533.67 810.984C533.35 810.664 532.91 810.504 532.35 810.504C531.742 810.504 531.286 810.688 530.982 811.056C530.694 811.424 530.526 811.88 530.478 812.424H526.47Z" fill="white"/>
<path d="M435.269 926C434.128 924 435.572 921.514 437.874 921.514H469.162C471.465 921.514 472.909 924 471.768 926L456.124 953.43C454.973 955.449 452.063 955.449 450.912 953.43L435.269 926Z" fill="#FC6238"/>
<circle cx="453.519" cy="919.519" r="22.5187" fill="#FC6238"/>
<path d="M443.281 915.296V911.48H449.929V929H445.657V915.296H443.281ZM452.592 925.712C453.136 925.28 453.384 925.08 453.336 925.112C454.904 923.816 456.136 922.752 457.032 921.92C457.944 921.088 458.712 920.216 459.336 919.304C459.96 918.392 460.272 917.504 460.272 916.64C460.272 915.984 460.12 915.472 459.816 915.104C459.512 914.736 459.056 914.552 458.448 914.552C457.84 914.552 457.36 914.784 457.008 915.248C456.672 915.696 456.504 916.336 456.504 917.168H452.544C452.576 915.808 452.864 914.672 453.408 913.76C453.968 912.848 454.696 912.176 455.592 911.744C456.504 911.312 457.512 911.096 458.616 911.096C460.52 911.096 461.952 911.584 462.912 912.56C463.888 913.536 464.376 914.808 464.376 916.376C464.376 918.088 463.792 919.68 462.624 921.152C461.456 922.608 459.968 924.032 458.16 925.424H464.64V928.76H452.592V925.712Z" fill="white"/>
<path d="M708.269 771C707.128 769 708.572 766.514 710.874 766.514H742.162C744.465 766.514 745.909 769 744.768 771L729.124 798.43C727.973 800.449 725.063 800.449 723.912 798.43L708.269 771Z" fill="#FC6238"/>
<circle cx="726.519" cy="764.519" r="22.5187" fill="#FC6238"/>
<path d="M716.569 770.712C717.113 770.28 717.361 770.08 717.313 770.112C718.881 768.816 720.113 767.752 721.009 766.92C721.921 766.088 722.689 765.216 723.313 764.304C723.937 763.392 724.249 762.504 724.249 761.64C724.249 760.984 724.097 760.472 723.793 760.104C723.489 759.736 723.033 759.552 722.425 759.552C721.817 759.552 721.337 759.784 720.985 760.248C720.649 760.696 720.481 761.336 720.481 762.168H716.521C716.553 760.808 716.841 759.672 717.385 758.76C717.945 757.848 718.673 757.176 719.569 756.744C720.481 756.312 721.489 756.096 722.593 756.096C724.497 756.096 725.929 756.584 726.889 757.56C727.865 758.536 728.353 759.808 728.353 761.376C728.353 763.088 727.769 764.68 726.601 766.152C725.433 767.608 723.945 769.032 722.137 770.424H728.617V773.76H716.569V770.712ZM729.992 760.296V756.48H736.64V774H732.368V760.296H729.992Z" fill="white"/>
<path d="M639.269 710C638.128 708 639.572 705.514 641.874 705.514H673.162C675.465 705.514 676.909 708 675.768 710L660.124 737.43C658.973 739.449 656.063 739.449 654.912 737.43L639.269 710Z" fill="#FC6238"/>
<circle cx="657.519" cy="703.519" r="22.5187" fill="#FC6238"/>
<path d="M644.252 709.712C644.796 709.28 645.044 709.08 644.996 709.112C646.564 707.816 647.796 706.752 648.692 705.92C649.604 705.088 650.372 704.216 650.996 703.304C651.62 702.392 651.932 701.504 651.932 700.64C651.932 699.984 651.78 699.472 651.476 699.104C651.172 698.736 650.716 698.552 650.108 698.552C649.5 698.552 649.02 698.784 648.668 699.248C648.332 699.696 648.164 700.336 648.164 701.168H644.204C644.236 699.808 644.524 698.672 645.068 697.76C645.628 696.848 646.356 696.176 647.252 695.744C648.164 695.312 649.172 695.096 650.276 695.096C652.18 695.096 653.612 695.584 654.572 696.56C655.548 697.536 656.036 698.808 656.036 700.376C656.036 702.088 655.452 703.68 654.284 705.152C653.116 706.608 651.628 708.032 649.82 709.424H656.3V712.76H644.252V709.712ZM658.107 704C658.107 701.248 658.635 699.08 659.691 697.496C660.763 695.912 662.483 695.12 664.851 695.12C667.219 695.12 668.931 695.912 669.987 697.496C671.059 699.08 671.595 701.248 671.595 704C671.595 706.784 671.059 708.968 669.987 710.552C668.931 712.136 667.219 712.928 664.851 712.928C662.483 712.928 660.763 712.136 659.691 710.552C658.635 708.968 658.107 706.784 658.107 704ZM667.563 704C667.563 702.384 667.387 701.144 667.035 700.28C666.683 699.4 665.955 698.96 664.851 698.96C663.747 698.96 663.019 699.4 662.667 700.28C662.315 701.144 662.139 702.384 662.139 704C662.139 705.088 662.203 705.992 662.331 706.712C662.459 707.416 662.715 707.992 663.099 708.44C663.499 708.872 664.083 709.088 664.851 709.088C665.619 709.088 666.195 708.872 666.579 708.44C666.979 707.992 667.243 707.416 667.371 706.712C667.499 705.992 667.563 705.088 667.563 704Z" fill="white"/>
<path d="M727.269 635C726.128 633 727.572 630.514 729.874 630.514H761.162C763.465 630.514 764.909 633 763.768 635L748.124 662.43C746.973 664.449 744.063 664.449 742.912 662.43L727.269 635Z" fill="#FC6238"/>
<circle cx="745.519" cy="628.519" r="22.5187" fill="#FC6238"/>
<path d="M731.959 634.712C732.503 634.28 732.751 634.08 732.703 634.112C734.271 632.816 735.503 631.752 736.399 630.92C737.311 630.088 738.079 629.216 738.703 628.304C739.327 627.392 739.639 626.504 739.639 625.64C739.639 624.984 739.487 624.472 739.183 624.104C738.879 623.736 738.423 623.552 737.815 623.552C737.207 623.552 736.727 623.784 736.375 624.248C736.039 624.696 735.871 625.336 735.871 626.168H731.911C731.943 624.808 732.231 623.672 732.775 622.76C733.335 621.848 734.063 621.176 734.959 620.744C735.871 620.312 736.879 620.096 737.983 620.096C739.887 620.096 741.319 620.584 742.279 621.56C743.255 622.536 743.743 623.808 743.743 625.376C743.743 627.088 743.159 628.68 741.991 630.152C740.823 631.608 739.335 633.032 737.527 634.424H744.007V637.76H731.959V634.712ZM745.91 634.88V631.568L753.494 620.72H758.078V631.328H760.046V634.88H758.078V638H753.974V634.88H745.91ZM754.262 625.232L750.23 631.328H754.262V625.232Z" fill="white"/>
<path d="M644.269 627C643.128 625 644.572 622.514 646.874 622.514H678.162C680.465 622.514 681.909 625 680.768 627L665.124 654.43C663.973 656.449 661.063 656.449 659.912 654.43L644.269 627Z" fill="#FC6238"/>
<circle cx="662.519" cy="620.519" r="22.5187" fill="#FC6238"/>
<path d="M650.225 626.712C650.769 626.28 651.017 626.08 650.969 626.112C652.537 624.816 653.769 623.752 654.665 622.92C655.577 622.088 656.345 621.216 656.969 620.304C657.593 619.392 657.905 618.504 657.905 617.64C657.905 616.984 657.753 616.472 657.449 616.104C657.145 615.736 656.689 615.552 656.081 615.552C655.473 615.552 654.993 615.784 654.641 616.248C654.305 616.696 654.137 617.336 654.137 618.168H650.177C650.209 616.808 650.497 615.672 651.041 614.76C651.601 613.848 652.329 613.176 653.225 612.744C654.137 612.312 655.145 612.096 656.249 612.096C658.153 612.096 659.585 612.584 660.545 613.56C661.521 614.536 662.009 615.808 662.009 617.376C662.009 619.088 661.425 620.68 660.257 622.152C659.089 623.608 657.601 625.032 655.793 626.424H662.273V629.76H650.225V626.712ZM663.936 626.712C664.48 626.28 664.728 626.08 664.68 626.112C666.248 624.816 667.48 623.752 668.376 622.92C669.288 622.088 670.056 621.216 670.68 620.304C671.304 619.392 671.616 618.504 671.616 617.64C671.616 616.984 671.464 616.472 671.16 616.104C670.856 615.736 670.4 615.552 669.792 615.552C669.184 615.552 668.704 615.784 668.352 616.248C668.016 616.696 667.848 617.336 667.848 618.168H663.888C663.92 616.808 664.208 615.672 664.752 614.76C665.312 613.848 666.04 613.176 666.936 612.744C667.848 612.312 668.856 612.096 669.96 612.096C671.864 612.096 673.296 612.584 674.256 613.56C675.232 614.536 675.72 615.808 675.72 617.376C675.72 619.088 675.136 620.68 673.968 622.152C672.8 623.608 671.312 625.032 669.504 626.424H675.984V629.76H663.936V626.712Z" fill="white"/>
<path d="M774.269 568C773.128 566 774.572 563.514 776.874 563.514H808.162C810.465 563.514 811.909 566 810.768 568L795.124 595.43C793.973 597.449 791.063 597.449 789.912 595.43L774.269 568Z" fill="#FC6238"/>
<circle cx="792.519" cy="561.519" r="22.5187" fill="#FC6238"/>
<path d="M779.698 567.712C780.242 567.28 780.49 567.08 780.442 567.112C782.01 565.816 783.242 564.752 784.138 563.92C785.05 563.088 785.818 562.216 786.442 561.304C787.066 560.392 787.378 559.504 787.378 558.64C787.378 557.984 787.226 557.472 786.922 557.104C786.618 556.736 786.162 556.552 785.554 556.552C784.946 556.552 784.466 556.784 784.114 557.248C783.778 557.696 783.61 558.336 783.61 559.168H779.65C779.682 557.808 779.97 556.672 780.514 555.76C781.074 554.848 781.802 554.176 782.698 553.744C783.61 553.312 784.618 553.096 785.722 553.096C787.626 553.096 789.058 553.584 790.018 554.56C790.994 555.536 791.482 556.808 791.482 558.376C791.482 560.088 790.898 561.68 789.73 563.152C788.562 564.608 787.074 566.032 785.266 567.424H791.746V570.76H779.698V567.712ZM797.969 565.864C798.209 567.128 798.945 567.76 800.177 567.76C801.025 567.76 801.625 567.384 801.977 566.632C802.329 565.88 802.505 564.656 802.505 562.96C802.153 563.456 801.673 563.84 801.065 564.112C800.457 564.384 799.777 564.52 799.025 564.52C798.001 564.52 797.089 564.312 796.289 563.896C795.489 563.464 794.857 562.832 794.393 562C793.945 561.152 793.721 560.128 793.721 558.928C793.721 557.744 793.961 556.712 794.441 555.832C794.937 554.952 795.633 554.272 796.529 553.792C797.441 553.312 798.513 553.072 799.745 553.072C802.113 553.072 803.769 553.808 804.713 555.28C805.657 556.752 806.129 558.92 806.129 561.784C806.129 563.864 805.937 565.584 805.553 566.944C805.185 568.288 804.553 569.312 803.657 570.016C802.777 570.72 801.569 571.072 800.033 571.072C798.817 571.072 797.777 570.832 796.913 570.352C796.065 569.872 795.409 569.24 794.945 568.456C794.497 567.672 794.241 566.808 794.177 565.864H797.969ZM799.961 561.28C800.633 561.28 801.169 561.08 801.569 560.68C801.969 560.264 802.169 559.704 802.169 559C802.169 558.232 801.961 557.64 801.545 557.224C801.129 556.808 800.569 556.6 799.865 556.6C799.161 556.6 798.601 556.816 798.185 557.248C797.785 557.664 797.585 558.24 797.585 558.976C797.585 559.664 797.785 560.224 798.185 560.656C798.601 561.072 799.193 561.28 799.961 561.28Z" fill="white"/>
<path d="M557.269 566C556.128 564 557.572 561.514 559.874 561.514H591.162C593.465 561.514 594.909 564 593.768 566L578.124 593.43C576.973 595.449 574.063 595.449 572.912 593.43L557.269 566Z" fill="#FC6238"/>
<circle cx="575.519" cy="559.519" r="22.5187" fill="#FC6238"/>
<path d="M562.815 565.712C563.359 565.28 563.607 565.08 563.559 565.112C565.127 563.816 566.359 562.752 567.255 561.92C568.167 561.088 568.935 560.216 569.559 559.304C570.183 558.392 570.495 557.504 570.495 556.64C570.495 555.984 570.343 555.472 570.039 555.104C569.735 554.736 569.279 554.552 568.671 554.552C568.063 554.552 567.583 554.784 567.231 555.248C566.895 555.696 566.727 556.336 566.727 557.168H562.767C562.799 555.808 563.087 554.672 563.631 553.76C564.191 552.848 564.919 552.176 565.815 551.744C566.727 551.312 567.735 551.096 568.839 551.096C570.743 551.096 572.175 551.584 573.135 552.56C574.111 553.536 574.599 554.808 574.599 556.376C574.599 558.088 574.015 559.68 572.847 561.152C571.679 562.608 570.191 564.032 568.383 565.424H574.863V568.76H562.815V565.712ZM576.814 556.424C576.878 554.712 577.438 553.392 578.494 552.464C579.55 551.536 580.982 551.072 582.79 551.072C583.99 551.072 585.014 551.28 585.862 551.696C586.726 552.112 587.374 552.68 587.806 553.4C588.254 554.12 588.478 554.928 588.478 555.824C588.478 556.88 588.214 557.744 587.686 558.416C587.158 559.072 586.542 559.52 585.838 559.76V559.856C586.75 560.16 587.47 560.664 587.998 561.368C588.526 562.072 588.79 562.976 588.79 564.08C588.79 565.072 588.558 565.952 588.094 566.72C587.646 567.472 586.982 568.064 586.102 568.496C585.238 568.928 584.206 569.144 583.006 569.144C581.086 569.144 579.55 568.672 578.398 567.728C577.262 566.784 576.662 565.36 576.598 563.456H580.582C580.598 564.16 580.798 564.72 581.182 565.136C581.566 565.536 582.126 565.736 582.862 565.736C583.486 565.736 583.966 565.56 584.302 565.208C584.654 564.84 584.83 564.36 584.83 563.768C584.83 563 584.582 562.448 584.086 562.112C583.606 561.76 582.83 561.584 581.758 561.584H580.99V558.248H581.758C582.574 558.248 583.23 558.112 583.726 557.84C584.238 557.552 584.494 557.048 584.494 556.328C584.494 555.752 584.334 555.304 584.014 554.984C583.694 554.664 583.254 554.504 582.694 554.504C582.086 554.504 581.63 554.688 581.326 555.056C581.038 555.424 580.87 555.88 580.822 556.424H576.814Z" fill="white"/>
<path d="M539.269 655C538.128 653 539.572 650.514 541.874 650.514H573.162C575.465 650.514 576.909 653 575.768 655L560.124 682.43C558.973 684.449 556.063 684.449 554.912 682.43L539.269 655Z" fill="#FC6238"/>
<circle cx="557.519" cy="648.519" r="22.5187" fill="#FC6238"/>
<path d="M546.015 644.296V640.48H552.663V658H548.391V644.296H546.015ZM555.567 654.88V651.568L563.151 640.72H567.735V651.328H569.703V654.88H567.735V658H563.631V654.88H555.567ZM563.919 645.232L559.887 651.328H563.919V645.232Z" fill="white"/>
<path d="M452.269 667C451.128 665 452.572 662.514 454.874 662.514H486.162C488.465 662.514 489.909 665 488.768 667L473.124 694.43C471.973 696.449 469.063 696.449 467.912 694.43L452.269 667Z" fill="#FC6238"/>
<circle cx="470.519" cy="660.519" r="22.5187" fill="#FC6238"/>
<path d="M457.154 657.424C457.218 655.712 457.778 654.392 458.834 653.464C459.89 652.536 461.322 652.072 463.13 652.072C464.33 652.072 465.354 652.28 466.202 652.696C467.066 653.112 467.714 653.68 468.146 654.4C468.594 655.12 468.818 655.928 468.818 656.824C468.818 657.88 468.554 658.744 468.026 659.416C467.498 660.072 466.882 660.52 466.178 660.76V660.856C467.09 661.16 467.81 661.664 468.338 662.368C468.866 663.072 469.13 663.976 469.13 665.08C469.13 666.072 468.898 666.952 468.434 667.72C467.986 668.472 467.322 669.064 466.442 669.496C465.578 669.928 464.546 670.144 463.346 670.144C461.426 670.144 459.89 669.672 458.738 668.728C457.602 667.784 457.002 666.36 456.938 664.456H460.922C460.938 665.16 461.138 665.72 461.522 666.136C461.906 666.536 462.466 666.736 463.202 666.736C463.826 666.736 464.306 666.56 464.642 666.208C464.994 665.84 465.17 665.36 465.17 664.768C465.17 664 464.922 663.448 464.426 663.112C463.946 662.76 463.17 662.584 462.098 662.584H461.33V659.248H462.098C462.914 659.248 463.57 659.112 464.066 658.84C464.578 658.552 464.834 658.048 464.834 657.328C464.834 656.752 464.674 656.304 464.354 655.984C464.034 655.664 463.594 655.504 463.034 655.504C462.426 655.504 461.97 655.688 461.666 656.056C461.378 656.424 461.21 656.88 461.162 657.424H457.154ZM483.877 656.056H476.389V659.368C476.709 659.016 477.157 658.728 477.733 658.504C478.309 658.28 478.933 658.168 479.605 658.168C480.805 658.168 481.797 658.44 482.581 658.984C483.381 659.528 483.965 660.232 484.333 661.096C484.701 661.96 484.885 662.896 484.885 663.904C484.885 665.776 484.357 667.264 483.301 668.368C482.245 669.456 480.757 670 478.837 670C477.557 670 476.445 669.784 475.501 669.352C474.557 668.904 473.829 668.288 473.317 667.504C472.805 666.72 472.525 665.816 472.477 664.792H476.485C476.581 665.288 476.813 665.704 477.181 666.04C477.549 666.36 478.053 666.52 478.693 666.52C479.445 666.52 480.005 666.28 480.373 665.8C480.741 665.32 480.925 664.68 480.925 663.88C480.925 663.096 480.733 662.496 480.349 662.08C479.965 661.664 479.405 661.456 478.669 661.456C478.125 661.456 477.677 661.592 477.325 661.864C476.973 662.12 476.741 662.464 476.629 662.896H472.669V652.456H483.877V656.056Z" fill="white"/>
<path d="M389.269 667C388.128 665 389.572 662.514 391.874 662.514H423.162C425.465 662.514 426.909 665 425.768 667L410.124 694.43C408.973 696.449 406.063 696.449 404.912 694.43L389.269 667Z" fill="#FC6238"/>
<circle cx="407.519" cy="660.519" r="22.5187" fill="#FC6238"/>
<path d="M394.318 657.424C394.382 655.712 394.942 654.392 395.998 653.464C397.054 652.536 398.486 652.072 400.294 652.072C401.494 652.072 402.518 652.28 403.366 652.696C404.23 653.112 404.878 653.68 405.31 654.4C405.758 655.12 405.982 655.928 405.982 656.824C405.982 657.88 405.718 658.744 405.19 659.416C404.662 660.072 404.046 660.52 403.342 660.76V660.856C404.254 661.16 404.974 661.664 405.502 662.368C406.03 663.072 406.294 663.976 406.294 665.08C406.294 666.072 406.062 666.952 405.598 667.72C405.15 668.472 404.486 669.064 403.606 669.496C402.742 669.928 401.71 670.144 400.51 670.144C398.59 670.144 397.054 669.672 395.902 668.728C394.766 667.784 394.166 666.36 394.102 664.456H398.086C398.102 665.16 398.302 665.72 398.686 666.136C399.07 666.536 399.63 666.736 400.366 666.736C400.99 666.736 401.47 666.56 401.806 666.208C402.158 665.84 402.334 665.36 402.334 664.768C402.334 664 402.086 663.448 401.59 663.112C401.11 662.76 400.334 662.584 399.262 662.584H398.494V659.248H399.262C400.078 659.248 400.734 659.112 401.23 658.84C401.742 658.552 401.998 658.048 401.998 657.328C401.998 656.752 401.838 656.304 401.518 655.984C401.198 655.664 400.758 655.504 400.198 655.504C399.59 655.504 399.134 655.688 398.83 656.056C398.542 656.424 398.374 656.88 398.326 657.424H394.318ZM417.369 657.208C417.241 656.616 417.017 656.176 416.697 655.888C416.377 655.584 415.921 655.432 415.329 655.432C414.417 655.432 413.761 655.832 413.361 656.632C412.961 657.416 412.753 658.664 412.737 660.376C413.089 659.816 413.593 659.376 414.249 659.056C414.921 658.736 415.657 658.576 416.457 658.576C418.025 658.576 419.281 659.072 420.225 660.064C421.185 661.056 421.665 662.44 421.665 664.216C421.665 665.384 421.425 666.408 420.945 667.288C420.481 668.168 419.793 668.856 418.881 669.352C417.985 669.848 416.921 670.096 415.689 670.096C413.225 670.096 411.513 669.328 410.553 667.792C409.593 666.24 409.113 664.016 409.113 661.12C409.113 658.08 409.617 655.824 410.625 654.352C411.649 652.864 413.281 652.12 415.521 652.12C416.721 652.12 417.729 652.36 418.545 652.84C419.377 653.304 420.001 653.92 420.417 654.688C420.849 655.456 421.105 656.296 421.185 657.208H417.369ZM415.473 661.816C414.785 661.816 414.209 662.024 413.745 662.44C413.297 662.84 413.073 663.416 413.073 664.168C413.073 664.936 413.281 665.536 413.697 665.968C414.129 666.4 414.737 666.616 415.521 666.616C416.225 666.616 416.777 666.408 417.177 665.992C417.593 665.56 417.801 664.976 417.801 664.24C417.801 663.488 417.601 662.896 417.201 662.464C416.801 662.032 416.225 661.816 415.473 661.816Z" fill="white"/>
<path d="M331.269 931C330.128 929 331.572 926.514 333.874 926.514H365.162C367.465 926.514 368.909 929 367.768 931L352.124 958.43C350.973 960.449 348.063 960.449 346.912 958.43L331.269 931Z" fill="#FC6238"/>
<circle cx="349.519" cy="924.519" r="22.5187" fill="#FC6238"/>
<path d="M339.281 920.296V916.48H345.929V934H341.657V920.296H339.281ZM348.592 930.712C349.136 930.28 349.384 930.08 349.336 930.112C350.904 928.816 352.136 927.752 353.032 926.92C353.944 926.088 354.712 925.216 355.336 924.304C355.96 923.392 356.272 922.504 356.272 921.64C356.272 920.984 356.12 920.472 355.816 920.104C355.512 919.736 355.056 919.552 354.448 919.552C353.84 919.552 353.36 919.784 353.008 920.248C352.672 920.696 352.504 921.336 352.504 922.168H348.544C348.576 920.808 348.864 919.672 349.408 918.76C349.968 917.848 350.696 917.176 351.592 916.744C352.504 916.312 353.512 916.096 354.616 916.096C356.52 916.096 357.952 916.584 358.912 917.56C359.888 918.536 360.376 919.808 360.376 921.376C360.376 923.088 359.792 924.68 358.624 926.152C357.456 927.608 355.968 929.032 354.16 930.424H360.64V933.76H348.592V930.712Z" fill="white"/>
<path d="M376.269 816C375.128 814 376.572 811.514 378.874 811.514H410.162C412.465 811.514 413.909 814 412.768 816L397.124 843.43C395.973 845.449 393.063 845.449 391.912 843.43L376.269 816Z" fill="#FC6238"/>
<circle cx="394.519" cy="809.519" r="22.5187" fill="#FC6238"/>
<path d="M384.281 805.296V801.48H390.929V819H386.657V805.296H384.281ZM393.592 815.712C394.136 815.28 394.384 815.08 394.336 815.112C395.904 813.816 397.136 812.752 398.032 811.92C398.944 811.088 399.712 810.216 400.336 809.304C400.96 808.392 401.272 807.504 401.272 806.64C401.272 805.984 401.12 805.472 400.816 805.104C400.512 804.736 400.056 804.552 399.448 804.552C398.84 804.552 398.36 804.784 398.008 805.248C397.672 805.696 397.504 806.336 397.504 807.168H393.544C393.576 805.808 393.864 804.672 394.408 803.76C394.968 802.848 395.696 802.176 396.592 801.744C397.504 801.312 398.512 801.096 399.616 801.096C401.52 801.096 402.952 801.584 403.912 802.56C404.888 803.536 405.376 804.808 405.376 806.376C405.376 808.088 404.792 809.68 403.624 811.152C402.456 812.608 400.968 814.032 399.16 815.424H405.64V818.76H393.592V815.712Z" fill="white"/>
<path d="M335.269 733C334.128 731 335.572 728.514 337.874 728.514H369.162C371.465 728.514 372.909 731 371.768 733L356.124 760.43C354.973 762.449 352.063 762.449 350.912 760.43L335.269 733Z" fill="#FC6238"/>
<circle cx="353.519" cy="726.519" r="22.5187" fill="#FC6238"/>
<path d="M342.753 722.296V718.48H349.401V736H345.129V722.296H342.753ZM356.625 730.864C356.865 732.128 357.601 732.76 358.833 732.76C359.681 732.76 360.281 732.384 360.633 731.632C360.985 730.88 361.161 729.656 361.161 727.96C360.809 728.456 360.329 728.84 359.721 729.112C359.113 729.384 358.433 729.52 357.681 729.52C356.657 729.52 355.745 729.312 354.945 728.896C354.145 728.464 353.513 727.832 353.049 727C352.601 726.152 352.377 725.128 352.377 723.928C352.377 722.744 352.617 721.712 353.097 720.832C353.593 719.952 354.289 719.272 355.185 718.792C356.097 718.312 357.169 718.072 358.401 718.072C360.769 718.072 362.425 718.808 363.369 720.28C364.313 721.752 364.785 723.92 364.785 726.784C364.785 728.864 364.593 730.584 364.209 731.944C363.841 733.288 363.209 734.312 362.313 735.016C361.433 735.72 360.225 736.072 358.689 736.072C357.473 736.072 356.433 735.832 355.569 735.352C354.721 734.872 354.065 734.24 353.601 733.456C353.153 732.672 352.897 731.808 352.833 730.864H356.625ZM358.617 726.28C359.289 726.28 359.825 726.08 360.225 725.68C360.625 725.264 360.825 724.704 360.825 724C360.825 723.232 360.617 722.64 360.201 722.224C359.785 721.808 359.225 721.6 358.521 721.6C357.817 721.6 357.257 721.816 356.841 722.248C356.441 722.664 356.241 723.24 356.241 723.976C356.241 724.664 356.441 725.224 356.841 725.656C357.257 726.072 357.849 726.28 358.617 726.28Z" fill="white"/>
<path d="M219.269 837C218.128 835 219.572 832.514 221.874 832.514H253.162C255.465 832.514 256.909 835 255.768 837L240.124 864.43C238.973 866.449 236.063 866.449 234.912 864.43L219.269 837Z" fill="#FC6238"/>
<circle cx="237.519" cy="830.519" r="22.5187" fill="#FC6238"/>
<path d="M234.169 830.592C232.665 829.792 231.913 828.536 231.913 826.824C231.913 825.96 232.137 825.176 232.585 824.472C233.033 823.752 233.713 823.184 234.625 822.768C235.537 822.336 236.657 822.12 237.985 822.12C239.313 822.12 240.425 822.336 241.321 822.768C242.233 823.184 242.913 823.752 243.361 824.472C243.809 825.176 244.033 825.96 244.033 826.824C244.033 827.688 243.825 828.44 243.409 829.08C243.009 829.72 242.465 830.224 241.777 830.592C242.641 831.008 243.305 831.584 243.769 832.32C244.233 833.04 244.465 833.888 244.465 834.864C244.465 836 244.177 836.984 243.601 837.816C243.025 838.632 242.241 839.256 241.249 839.688C240.273 840.12 239.185 840.336 237.985 840.336C236.785 840.336 235.689 840.12 234.697 839.688C233.721 839.256 232.945 838.632 232.369 837.816C231.793 836.984 231.505 836 231.505 834.864C231.505 833.872 231.737 833.016 232.201 832.296C232.665 831.56 233.321 830.992 234.169 830.592ZM240.049 827.448C240.049 826.792 239.857 826.288 239.473 825.936C239.105 825.568 238.609 825.384 237.985 825.384C237.361 825.384 236.857 825.568 236.473 825.936C236.105 826.304 235.921 826.816 235.921 827.472C235.921 828.096 236.113 828.592 236.497 828.96C236.881 829.312 237.377 829.488 237.985 829.488C238.593 829.488 239.089 829.304 239.473 828.936C239.857 828.568 240.049 828.072 240.049 827.448ZM237.985 832.368C237.233 832.368 236.625 832.576 236.161 832.992C235.697 833.392 235.465 833.952 235.465 834.672C235.465 835.344 235.689 835.896 236.137 836.328C236.601 836.76 237.217 836.976 237.985 836.976C238.753 836.976 239.353 836.76 239.785 836.328C240.233 835.896 240.457 835.344 240.457 834.672C240.457 833.968 240.225 833.408 239.761 832.992C239.313 832.576 238.721 832.368 237.985 832.368Z" fill="white"/>
<path d="M89.2685 819C88.1279 817 89.5721 814.514 91.8745 814.514H123.162C125.465 814.514 126.909 817 125.768 819L110.124 846.43C108.973 848.449 106.063 848.449 104.912 846.43L89.2685 819Z" fill="#FC6238"/>
<circle cx="107.519" cy="812.519" r="22.5187" fill="#FC6238"/>
<path d="M99.6246 808.296V804.48H106.273V822H102.001V808.296H99.6246ZM108.648 808.296V804.48H115.296V822H111.024V808.296H108.648Z" fill="white"/>
<path d="M108.269 704C107.128 702 108.572 699.514 110.874 699.514H142.162C144.465 699.514 145.909 702 144.768 704L129.124 731.43C127.973 733.449 125.063 733.449 123.912 731.43L108.269 704Z" fill="#FC6238"/>
<circle cx="126.519" cy="697.519" r="22.5187" fill="#FC6238"/>
<path d="M115.308 693.296V689.48H121.956V707H117.684V693.296H115.308ZM124.764 698C124.764 695.248 125.292 693.08 126.348 691.496C127.42 689.912 129.14 689.12 131.508 689.12C133.876 689.12 135.588 689.912 136.644 691.496C137.716 693.08 138.252 695.248 138.252 698C138.252 700.784 137.716 702.968 136.644 704.552C135.588 706.136 133.876 706.928 131.508 706.928C129.14 706.928 127.42 706.136 126.348 704.552C125.292 702.968 124.764 700.784 124.764 698ZM134.22 698C134.22 696.384 134.044 695.144 133.692 694.28C133.34 693.4 132.612 692.96 131.508 692.96C130.404 692.96 129.676 693.4 129.324 694.28C128.972 695.144 128.796 696.384 128.796 698C128.796 699.088 128.86 699.992 128.988 700.712C129.116 701.416 129.372 701.992 129.756 702.44C130.156 702.872 130.74 703.088 131.508 703.088C132.276 703.088 132.852 702.872 133.236 702.44C133.636 701.992 133.9 701.416 134.028 700.712C134.156 699.992 134.22 699.088 134.22 698Z" fill="white"/>
<path d="M8.26851 705C7.12791 703 8.57215 700.514 10.8745 700.514H42.1623C44.4646 700.514 45.9088 703 44.7682 705L29.1244 732.43C27.9733 734.449 25.0635 734.449 23.9124 732.43L8.26851 705Z" fill="#FC6238"/>
<circle cx="26.5187" cy="698.519" r="22.5187" fill="#FC6238"/>
<path d="M32.8328 693.552L26.8088 708H22.6088L28.7048 694.008H21.2408V690.504H32.8328V693.552Z" fill="white"/>
<path d="M193.269 627C192.128 625 193.572 622.514 195.874 622.514H227.162C229.465 622.514 230.909 625 229.768 627L214.124 654.43C212.973 656.449 210.063 656.449 208.912 654.43L193.269 627Z" fill="#FC6238"/>
<circle cx="211.519" cy="620.519" r="22.5187" fill="#FC6238"/>
<path d="M208.127 616.296V612.48H214.775V630H210.503V616.296H208.127Z" fill="white"/>
<path d="M259.269 700C258.128 698 259.572 695.514 261.874 695.514H293.162C295.465 695.514 296.909 698 295.768 700L280.124 727.43C278.973 729.449 276.063 729.449 274.912 727.43L259.269 700Z" fill="#FC6238"/>
<circle cx="277.519" cy="693.519" r="22.5187" fill="#FC6238"/>
<path d="M276.104 697.864C276.344 699.128 277.08 699.76 278.312 699.76C279.16 699.76 279.76 699.384 280.112 698.632C280.464 697.88 280.64 696.656 280.64 694.96C280.288 695.456 279.808 695.84 279.2 696.112C278.592 696.384 277.912 696.52 277.16 696.52C276.136 696.52 275.224 696.312 274.424 695.896C273.624 695.464 272.992 694.832 272.528 694C272.08 693.152 271.856 692.128 271.856 690.928C271.856 689.744 272.096 688.712 272.576 687.832C273.072 686.952 273.768 686.272 274.664 685.792C275.576 685.312 276.648 685.072 277.88 685.072C280.248 685.072 281.904 685.808 282.848 687.28C283.792 688.752 284.264 690.92 284.264 693.784C284.264 695.864 284.072 697.584 283.688 698.944C283.32 700.288 282.688 701.312 281.792 702.016C280.912 702.72 279.704 703.072 278.168 703.072C276.952 703.072 275.912 702.832 275.048 702.352C274.2 701.872 273.544 701.24 273.08 700.456C272.632 699.672 272.376 698.808 272.312 697.864H276.104ZM278.096 693.28C278.768 693.28 279.304 693.08 279.704 692.68C280.104 692.264 280.304 691.704 280.304 691C280.304 690.232 280.096 689.64 279.68 689.224C279.264 688.808 278.704 688.6 278 688.6C277.296 688.6 276.736 688.816 276.32 689.248C275.92 689.664 275.72 690.24 275.72 690.976C275.72 691.664 275.92 692.224 276.32 692.656C276.736 693.072 277.328 693.28 278.096 693.28Z" fill="white"/>
<path d="M192.269 702C191.128 700 192.572 697.514 194.874 697.514H226.162C228.465 697.514 229.909 700 228.768 702L213.124 729.43C211.973 731.449 209.063 731.449 207.912 729.43L192.269 702Z" fill="#FC6238"/>
<circle cx="210.519" cy="695.519" r="22.5187" fill="#FC6238"/>
<path d="M207.169 695.592C205.665 694.792 204.913 693.536 204.913 691.824C204.913 690.96 205.137 690.176 205.585 689.472C206.033 688.752 206.713 688.184 207.625 687.768C208.537 687.336 209.657 687.12 210.985 687.12C212.313 687.12 213.425 687.336 214.321 687.768C215.233 688.184 215.913 688.752 216.361 689.472C216.809 690.176 217.033 690.96 217.033 691.824C217.033 692.688 216.825 693.44 216.409 694.08C216.009 694.72 215.465 695.224 214.777 695.592C215.641 696.008 216.305 696.584 216.769 697.32C217.233 698.04 217.465 698.888 217.465 699.864C217.465 701 217.177 701.984 216.601 702.816C216.025 703.632 215.241 704.256 214.249 704.688C213.273 705.12 212.185 705.336 210.985 705.336C209.785 705.336 208.689 705.12 207.697 704.688C206.721 704.256 205.945 703.632 205.369 702.816C204.793 701.984 204.505 701 204.505 699.864C204.505 698.872 204.737 698.016 205.201 697.296C205.665 696.56 206.321 695.992 207.169 695.592ZM213.049 692.448C213.049 691.792 212.857 691.288 212.473 690.936C212.105 690.568 211.609 690.384 210.985 690.384C210.361 690.384 209.857 690.568 209.473 690.936C209.105 691.304 208.921 691.816 208.921 692.472C208.921 693.096 209.113 693.592 209.497 693.96C209.881 694.312 210.377 694.488 210.985 694.488C211.593 694.488 212.089 694.304 212.473 693.936C212.857 693.568 213.049 693.072 213.049 692.448ZM210.985 697.368C210.233 697.368 209.625 697.576 209.161 697.992C208.697 698.392 208.465 698.952 208.465 699.672C208.465 700.344 208.689 700.896 209.137 701.328C209.601 701.76 210.217 701.976 210.985 701.976C211.753 701.976 212.353 701.76 212.785 701.328C213.233 700.896 213.457 700.344 213.457 699.672C213.457 698.968 213.225 698.408 212.761 697.992C212.313 697.576 211.721 697.368 210.985 697.368Z" fill="white"/>
<path d="M292.269 552C291.128 550 292.572 547.514 294.874 547.514H326.162C328.465 547.514 329.909 550 328.768 552L313.124 579.43C311.973 581.449 309.063 581.449 307.912 579.43L292.269 552Z" fill="#FC6238"/>
<circle cx="310.519" cy="545.519" r="22.5187" fill="#FC6238"/>
<path d="M309.104 549.864C309.344 551.128 310.08 551.76 311.312 551.76C312.16 551.76 312.76 551.384 313.112 550.632C313.464 549.88 313.64 548.656 313.64 546.96C313.288 547.456 312.808 547.84 312.2 548.112C311.592 548.384 310.912 548.52 310.16 548.52C309.136 548.52 308.224 548.312 307.424 547.896C306.624 547.464 305.992 546.832 305.528 546C305.08 545.152 304.856 544.128 304.856 542.928C304.856 541.744 305.096 540.712 305.576 539.832C306.072 538.952 306.768 538.272 307.664 537.792C308.576 537.312 309.648 537.072 310.88 537.072C313.248 537.072 314.904 537.808 315.848 539.28C316.792 540.752 317.264 542.92 317.264 545.784C317.264 547.864 317.072 549.584 316.688 550.944C316.32 552.288 315.688 553.312 314.792 554.016C313.912 554.72 312.704 555.072 311.168 555.072C309.952 555.072 308.912 554.832 308.048 554.352C307.2 553.872 306.544 553.24 306.08 552.456C305.632 551.672 305.376 550.808 305.312 549.864H309.104ZM311.096 545.28C311.768 545.28 312.304 545.08 312.704 544.68C313.104 544.264 313.304 543.704 313.304 543C313.304 542.232 313.096 541.64 312.68 541.224C312.264 540.808 311.704 540.6 311 540.6C310.296 540.6 309.736 540.816 309.32 541.248C308.92 541.664 308.72 542.24 308.72 542.976C308.72 543.664 308.92 544.224 309.32 544.656C309.736 545.072 310.328 545.28 311.096 545.28Z" fill="white"/>
<path d="M350.269 485C349.128 483 350.572 480.514 352.874 480.514H384.162C386.465 480.514 387.909 483 386.768 485L371.124 512.43C369.973 514.449 367.063 514.449 365.912 512.43L350.269 485Z" fill="#FC6238"/>
<circle cx="368.519" cy="478.519" r="22.5187" fill="#FC6238"/>
<path d="M357.355 474.296V470.48H364.003V488H359.731V474.296H357.355ZM369.69 478.592C368.186 477.792 367.434 476.536 367.434 474.824C367.434 473.96 367.658 473.176 368.106 472.472C368.554 471.752 369.234 471.184 370.146 470.768C371.058 470.336 372.178 470.12 373.506 470.12C374.834 470.12 375.946 470.336 376.842 470.768C377.754 471.184 378.434 471.752 378.882 472.472C379.33 473.176 379.554 473.96 379.554 474.824C379.554 475.688 379.346 476.44 378.93 477.08C378.53 477.72 377.986 478.224 377.298 478.592C378.162 479.008 378.826 479.584 379.29 480.32C379.754 481.04 379.986 481.888 379.986 482.864C379.986 484 379.698 484.984 379.122 485.816C378.546 486.632 377.762 487.256 376.77 487.688C375.794 488.12 374.706 488.336 373.506 488.336C372.306 488.336 371.21 488.12 370.218 487.688C369.242 487.256 368.466 486.632 367.89 485.816C367.314 484.984 367.026 484 367.026 482.864C367.026 481.872 367.258 481.016 367.722 480.296C368.186 479.56 368.842 478.992 369.69 478.592ZM375.57 475.448C375.57 474.792 375.378 474.288 374.994 473.936C374.626 473.568 374.13 473.384 373.506 473.384C372.882 473.384 372.378 473.568 371.994 473.936C371.626 474.304 371.442 474.816 371.442 475.472C371.442 476.096 371.634 476.592 372.018 476.96C372.402 477.312 372.898 477.488 373.506 477.488C374.114 477.488 374.61 477.304 374.994 476.936C375.378 476.568 375.57 476.072 375.57 475.448ZM373.506 480.368C372.754 480.368 372.146 480.576 371.682 480.992C371.218 481.392 370.986 481.952 370.986 482.672C370.986 483.344 371.21 483.896 371.658 484.328C372.122 484.76 372.738 484.976 373.506 484.976C374.274 484.976 374.874 484.76 375.306 484.328C375.754 483.896 375.978 483.344 375.978 482.672C375.978 481.968 375.746 481.408 375.282 480.992C374.834 480.576 374.242 480.368 373.506 480.368Z" fill="white"/>
<path d="M212.269 418C211.128 416 212.572 413.514 214.874 413.514H246.162C248.465 413.514 249.909 416 248.768 418L233.124 445.43C231.973 447.449 229.063 447.449 227.912 445.43L212.269 418Z" fill="#FC6238"/>
<circle cx="230.519" cy="411.519" r="22.5187" fill="#FC6238"/>
<path d="M236.602 407.056H229.114V410.368C229.434 410.016 229.882 409.728 230.458 409.504C231.034 409.28 231.658 409.168 232.33 409.168C233.53 409.168 234.522 409.44 235.306 409.984C236.106 410.528 236.69 411.232 237.058 412.096C237.426 412.96 237.61 413.896 237.61 414.904C237.61 416.776 237.082 418.264 236.026 419.368C234.97 420.456 233.482 421 231.562 421C230.282 421 229.17 420.784 228.226 420.352C227.282 419.904 226.554 419.288 226.042 418.504C225.53 417.72 225.25 416.816 225.202 415.792H229.21C229.306 416.288 229.538 416.704 229.906 417.04C230.274 417.36 230.778 417.52 231.418 417.52C232.17 417.52 232.73 417.28 233.098 416.8C233.466 416.32 233.65 415.68 233.65 414.88C233.65 414.096 233.458 413.496 233.074 413.08C232.69 412.664 232.13 412.456 231.394 412.456C230.85 412.456 230.402 412.592 230.05 412.864C229.698 413.12 229.466 413.464 229.354 413.896H225.394V403.456H236.602V407.056Z" fill="white"/>
<path d="M175.269 356C174.128 354 175.572 351.514 177.874 351.514H209.162C211.465 351.514 212.909 354 211.768 356L196.124 383.43C194.973 385.449 192.063 385.449 190.912 383.43L175.269 356Z" fill="#FC6238"/>
<circle cx="193.519" cy="349.519" r="22.5187" fill="#FC6238"/>
<path d="M196.094 346.208C195.966 345.616 195.742 345.176 195.422 344.888C195.102 344.584 194.646 344.432 194.054 344.432C193.142 344.432 192.486 344.832 192.086 345.632C191.686 346.416 191.478 347.664 191.462 349.376C191.814 348.816 192.318 348.376 192.974 348.056C193.646 347.736 194.382 347.576 195.182 347.576C196.75 347.576 198.006 348.072 198.95 349.064C199.91 350.056 200.39 351.44 200.39 353.216C200.39 354.384 200.15 355.408 199.67 356.288C199.206 357.168 198.518 357.856 197.606 358.352C196.71 358.848 195.646 359.096 194.414 359.096C191.95 359.096 190.238 358.328 189.278 356.792C188.318 355.24 187.838 353.016 187.838 350.12C187.838 347.08 188.342 344.824 189.35 343.352C190.374 341.864 192.006 341.12 194.246 341.12C195.446 341.12 196.454 341.36 197.27 341.84C198.102 342.304 198.726 342.92 199.142 343.688C199.574 344.456 199.83 345.296 199.91 346.208H196.094ZM194.198 350.816C193.51 350.816 192.934 351.024 192.47 351.44C192.022 351.84 191.798 352.416 191.798 353.168C191.798 353.936 192.006 354.536 192.422 354.968C192.854 355.4 193.462 355.616 194.246 355.616C194.95 355.616 195.502 355.408 195.902 354.992C196.318 354.56 196.526 353.976 196.526 353.24C196.526 352.488 196.326 351.896 195.926 351.464C195.526 351.032 194.95 350.816 194.198 350.816Z" fill="white"/>
<path d="M255.269 320C254.128 318 255.572 315.514 257.874 315.514H289.162C291.465 315.514 292.909 318 291.768 320L276.124 347.43C274.973 349.449 272.063 349.449 270.912 347.43L255.269 320Z" fill="#FC6238"/>
<circle cx="273.519" cy="313.519" r="22.5187" fill="#FC6238"/>
<path d="M279.602 309.056H272.114V312.368C272.434 312.016 272.882 311.728 273.458 311.504C274.034 311.28 274.658 311.168 275.33 311.168C276.53 311.168 277.522 311.44 278.306 311.984C279.106 312.528 279.69 313.232 280.058 314.096C280.426 314.96 280.61 315.896 280.61 316.904C280.61 318.776 280.082 320.264 279.026 321.368C277.97 322.456 276.482 323 274.562 323C273.282 323 272.17 322.784 271.226 322.352C270.282 321.904 269.554 321.288 269.042 320.504C268.53 319.72 268.25 318.816 268.202 317.792H272.21C272.306 318.288 272.538 318.704 272.906 319.04C273.274 319.36 273.778 319.52 274.418 319.52C275.17 319.52 275.73 319.28 276.098 318.8C276.466 318.32 276.65 317.68 276.65 316.88C276.65 316.096 276.458 315.496 276.074 315.08C275.69 314.664 275.13 314.456 274.394 314.456C273.85 314.456 273.402 314.592 273.05 314.864C272.698 315.12 272.466 315.464 272.354 315.896H268.394V305.456H279.602V309.056Z" fill="white"/>
<path d="M194.269 277C193.128 275 194.572 272.514 196.874 272.514H228.162C230.465 272.514 231.909 275 230.768 277L215.124 304.43C213.973 306.449 211.063 306.449 209.912 304.43L194.269 277Z" fill="#FC6238"/>
<circle cx="212.519" cy="270.519" r="22.5187" fill="#FC6238"/>
<path d="M199.698 276.712C200.242 276.28 200.49 276.08 200.442 276.112C202.01 274.816 203.242 273.752 204.138 272.92C205.05 272.088 205.818 271.216 206.442 270.304C207.066 269.392 207.378 268.504 207.378 267.64C207.378 266.984 207.226 266.472 206.922 266.104C206.618 265.736 206.162 265.552 205.554 265.552C204.946 265.552 204.466 265.784 204.114 266.248C203.778 266.696 203.61 267.336 203.61 268.168H199.65C199.682 266.808 199.97 265.672 200.514 264.76C201.074 263.848 201.802 263.176 202.698 262.744C203.61 262.312 204.618 262.096 205.722 262.096C207.626 262.096 209.058 262.584 210.018 263.56C210.994 264.536 211.482 265.808 211.482 267.376C211.482 269.088 210.898 270.68 209.73 272.152C208.562 273.608 207.074 275.032 205.266 276.424H211.746V279.76H199.698V276.712ZM217.969 274.864C218.209 276.128 218.945 276.76 220.177 276.76C221.025 276.76 221.625 276.384 221.977 275.632C222.329 274.88 222.505 273.656 222.505 271.96C222.153 272.456 221.673 272.84 221.065 273.112C220.457 273.384 219.777 273.52 219.025 273.52C218.001 273.52 217.089 273.312 216.289 272.896C215.489 272.464 214.857 271.832 214.393 271C213.945 270.152 213.721 269.128 213.721 267.928C213.721 266.744 213.961 265.712 214.441 264.832C214.937 263.952 215.633 263.272 216.529 262.792C217.441 262.312 218.513 262.072 219.745 262.072C222.113 262.072 223.769 262.808 224.713 264.28C225.657 265.752 226.129 267.92 226.129 270.784C226.129 272.864 225.937 274.584 225.553 275.944C225.185 277.288 224.553 278.312 223.657 279.016C222.777 279.72 221.569 280.072 220.033 280.072C218.817 280.072 217.777 279.832 216.913 279.352C216.065 278.872 215.409 278.24 214.945 277.456C214.497 276.672 214.241 275.808 214.177 274.864H217.969ZM219.961 270.28C220.633 270.28 221.169 270.08 221.569 269.68C221.969 269.264 222.169 268.704 222.169 268C222.169 267.232 221.961 266.64 221.545 266.224C221.129 265.808 220.569 265.6 219.865 265.6C219.161 265.6 218.601 265.816 218.185 266.248C217.785 266.664 217.585 267.24 217.585 267.976C217.585 268.664 217.785 269.224 218.185 269.656C218.601 270.072 219.193 270.28 219.961 270.28Z" fill="white"/>
<path d="M214.269 189C213.128 187 214.572 184.514 216.874 184.514H248.162C250.465 184.514 251.909 187 250.768 189L235.124 216.43C233.973 218.449 231.063 218.449 229.912 216.43L214.269 189Z" fill="#FC6238"/>
<circle cx="232.519" cy="182.519" r="22.5187" fill="#FC6238"/>
<path d="M238.602 178.056H231.114V181.368C231.434 181.016 231.882 180.728 232.458 180.504C233.034 180.28 233.658 180.168 234.33 180.168C235.53 180.168 236.522 180.44 237.306 180.984C238.106 181.528 238.69 182.232 239.058 183.096C239.426 183.96 239.61 184.896 239.61 185.904C239.61 187.776 239.082 189.264 238.026 190.368C236.97 191.456 235.482 192 233.562 192C232.282 192 231.17 191.784 230.226 191.352C229.282 190.904 228.554 190.288 228.042 189.504C227.53 188.72 227.25 187.816 227.202 186.792H231.21C231.306 187.288 231.538 187.704 231.906 188.04C232.274 188.36 232.778 188.52 233.418 188.52C234.17 188.52 234.73 188.28 235.098 187.8C235.466 187.32 235.65 186.68 235.65 185.88C235.65 185.096 235.458 184.496 235.074 184.08C234.69 183.664 234.13 183.456 233.394 183.456C232.85 183.456 232.402 183.592 232.05 183.864C231.698 184.12 231.466 184.464 231.354 184.896H227.394V174.456H238.602V178.056Z" fill="white"/>
<path d="M389.269 265C388.128 263 389.572 260.514 391.874 260.514H423.162C425.465 260.514 426.909 263 425.768 265L410.124 292.43C408.973 294.449 406.063 294.449 404.912 292.43L389.269 265Z" fill="#FC6238"/>
<circle cx="407.519" cy="258.519" r="22.5187" fill="#FC6238"/>
<path d="M401.046 264.88V261.568L408.63 250.72H413.214V261.328H415.182V264.88H413.214V268H409.11V264.88H401.046ZM409.398 255.232L405.366 261.328H409.398V255.232Z" fill="white"/>
<path d="M292.269 116C291.128 114 292.572 111.514 294.874 111.514H326.162C328.465 111.514 329.909 114 328.768 116L313.124 143.43C311.973 145.449 309.063 145.449 307.912 143.43L292.269 116Z" fill="#FC6238"/>
<circle cx="310.519" cy="109.519" r="22.5187" fill="#FC6238"/>
<path d="M299.496 105.296V101.48H306.144V119H301.872V105.296H299.496ZM317.615 106.208C317.487 105.616 317.263 105.176 316.943 104.888C316.623 104.584 316.167 104.432 315.575 104.432C314.663 104.432 314.007 104.832 313.607 105.632C313.207 106.416 312.999 107.664 312.983 109.376C313.335 108.816 313.839 108.376 314.495 108.056C315.167 107.736 315.903 107.576 316.703 107.576C318.271 107.576 319.527 108.072 320.471 109.064C321.431 110.056 321.911 111.44 321.911 113.216C321.911 114.384 321.671 115.408 321.191 116.288C320.727 117.168 320.039 117.856 319.127 118.352C318.231 118.848 317.167 119.096 315.935 119.096C313.471 119.096 311.759 118.328 310.799 116.792C309.839 115.24 309.359 113.016 309.359 110.12C309.359 107.08 309.863 104.824 310.871 103.352C311.895 101.864 313.527 101.12 315.767 101.12C316.967 101.12 317.975 101.36 318.791 101.84C319.623 102.304 320.247 102.92 320.663 103.688C321.095 104.456 321.351 105.296 321.431 106.208H317.615ZM315.719 110.816C315.031 110.816 314.455 111.024 313.991 111.44C313.543 111.84 313.319 112.416 313.319 113.168C313.319 113.936 313.527 114.536 313.943 114.968C314.375 115.4 314.983 115.616 315.767 115.616C316.471 115.616 317.023 115.408 317.423 114.992C317.839 114.56 318.047 113.976 318.047 113.24C318.047 112.488 317.847 111.896 317.447 111.464C317.047 111.032 316.471 110.816 315.719 110.816Z" fill="white"/>
<path d="M234.269 28.9999C233.128 26.9999 234.572 24.5137 236.874 24.5137H268.162C270.465 24.5137 271.909 26.9999 270.768 28.9999L255.124 56.4303C253.973 58.4486 251.063 58.4486 249.912 56.4303L234.269 28.9999Z" fill="#FC6238"/>
<circle cx="252.519" cy="22.5187" r="22.5187" fill="#FC6238"/>
<path d="M239.693 19.424C239.757 17.712 240.317 16.392 241.373 15.464C242.429 14.536 243.861 14.072 245.669 14.072C246.869 14.072 247.893 14.28 248.741 14.696C249.605 15.112 250.253 15.68 250.685 16.4C251.133 17.12 251.357 17.928 251.357 18.824C251.357 19.88 251.093 20.744 250.565 21.416C250.037 22.072 249.421 22.52 248.717 22.76V22.856C249.629 23.16 250.349 23.664 250.877 24.368C251.405 25.072 251.669 25.976 251.669 27.08C251.669 28.072 251.437 28.952 250.973 29.72C250.525 30.472 249.861 31.064 248.981 31.496C248.117 31.928 247.085 32.144 245.885 32.144C243.965 32.144 242.429 31.672 241.277 30.728C240.141 29.784 239.541 28.36 239.477 26.456H243.461C243.477 27.16 243.677 27.72 244.061 28.136C244.445 28.536 245.005 28.736 245.741 28.736C246.365 28.736 246.845 28.56 247.181 28.208C247.533 27.84 247.709 27.36 247.709 26.768C247.709 26 247.461 25.448 246.965 25.112C246.485 24.76 245.709 24.584 244.637 24.584H243.869V21.248H244.637C245.453 21.248 246.109 21.112 246.605 20.84C247.117 20.552 247.373 20.048 247.373 19.328C247.373 18.752 247.213 18.304 246.893 17.984C246.573 17.664 246.133 17.504 245.573 17.504C244.965 17.504 244.509 17.688 244.205 18.056C243.917 18.424 243.749 18.88 243.701 19.424H239.693ZM254.224 19.424C254.288 17.712 254.848 16.392 255.904 15.464C256.96 14.536 258.392 14.072 260.2 14.072C261.4 14.072 262.424 14.28 263.272 14.696C264.136 15.112 264.784 15.68 265.216 16.4C265.664 17.12 265.888 17.928 265.888 18.824C265.888 19.88 265.624 20.744 265.096 21.416C264.568 22.072 263.952 22.52 263.248 22.76V22.856C264.16 23.16 264.88 23.664 265.408 24.368C265.936 25.072 266.2 25.976 266.2 27.08C266.2 28.072 265.968 28.952 265.504 29.72C265.056 30.472 264.392 31.064 263.512 31.496C262.648 31.928 261.616 32.144 260.416 32.144C258.496 32.144 256.96 31.672 255.808 30.728C254.672 29.784 254.072 28.36 254.008 26.456H257.992C258.008 27.16 258.208 27.72 258.592 28.136C258.976 28.536 259.536 28.736 260.272 28.736C260.896 28.736 261.376 28.56 261.712 28.208C262.064 27.84 262.24 27.36 262.24 26.768C262.24 26 261.992 25.448 261.496 25.112C261.016 24.76 260.24 24.584 259.168 24.584H258.4V21.248H259.168C259.984 21.248 260.64 21.112 261.136 20.84C261.648 20.552 261.904 20.048 261.904 19.328C261.904 18.752 261.744 18.304 261.424 17.984C261.104 17.664 260.664 17.504 260.104 17.504C259.496 17.504 259.04 17.688 258.736 18.056C258.448 18.424 258.28 18.88 258.232 19.424H254.224Z" fill="white"/>
<path d="M157.269 496C156.128 494 157.572 491.514 159.874 491.514H191.162C193.465 491.514 194.909 494 193.768 496L178.124 523.43C176.973 525.449 174.063 525.449 172.912 523.43L157.269 496Z" fill="#FC6238"/>
<circle cx="175.519" cy="489.519" r="22.5187" fill="#FC6238"/>
<path d="M172.169 489.592C170.665 488.792 169.913 487.536 169.913 485.824C169.913 484.96 170.137 484.176 170.585 483.472C171.033 482.752 171.713 482.184 172.625 481.768C173.537 481.336 174.657 481.12 175.985 481.12C177.313 481.12 178.425 481.336 179.321 481.768C180.233 482.184 180.913 482.752 181.361 483.472C181.809 484.176 182.033 484.96 182.033 485.824C182.033 486.688 181.825 487.44 181.409 488.08C181.009 488.72 180.465 489.224 179.777 489.592C180.641 490.008 181.305 490.584 181.769 491.32C182.233 492.04 182.465 492.888 182.465 493.864C182.465 495 182.177 495.984 181.601 496.816C181.025 497.632 180.241 498.256 179.249 498.688C178.273 499.12 177.185 499.336 175.985 499.336C174.785 499.336 173.689 499.12 172.697 498.688C171.721 498.256 170.945 497.632 170.369 496.816C169.793 495.984 169.505 495 169.505 493.864C169.505 492.872 169.737 492.016 170.201 491.296C170.665 490.56 171.321 489.992 172.169 489.592ZM178.049 486.448C178.049 485.792 177.857 485.288 177.473 484.936C177.105 484.568 176.609 484.384 175.985 484.384C175.361 484.384 174.857 484.568 174.473 484.936C174.105 485.304 173.921 485.816 173.921 486.472C173.921 487.096 174.113 487.592 174.497 487.96C174.881 488.312 175.377 488.488 175.985 488.488C176.593 488.488 177.089 488.304 177.473 487.936C177.857 487.568 178.049 487.072 178.049 486.448ZM175.985 491.368C175.233 491.368 174.625 491.576 174.161 491.992C173.697 492.392 173.465 492.952 173.465 493.672C173.465 494.344 173.689 494.896 174.137 495.328C174.601 495.76 175.217 495.976 175.985 495.976C176.753 495.976 177.353 495.76 177.785 495.328C178.233 494.896 178.457 494.344 178.457 493.672C178.457 492.968 178.225 492.408 177.761 491.992C177.313 491.576 176.721 491.368 175.985 491.368Z" fill="white"/>
<path d="M626.269 525C625.128 523 626.572 520.514 628.874 520.514H660.162C662.465 520.514 663.909 523 662.768 525L647.124 552.43C645.973 554.449 643.063 554.449 641.912 552.43L626.269 525Z" fill="#FC6238"/>
<circle cx="644.519" cy="518.519" r="22.5187" fill="#FC6238"/>
<path d="M632.659 524.712C633.203 524.28 633.451 524.08 633.403 524.112C634.971 522.816 636.203 521.752 637.099 520.92C638.011 520.088 638.779 519.216 639.403 518.304C640.027 517.392 640.339 516.504 640.339 515.64C640.339 514.984 640.187 514.472 639.883 514.104C639.579 513.736 639.123 513.552 638.515 513.552C637.907 513.552 637.427 513.784 637.075 514.248C636.739 514.696 636.571 515.336 636.571 516.168H632.611C632.643 514.808 632.931 513.672 633.475 512.76C634.035 511.848 634.763 511.176 635.659 510.744C636.571 510.312 637.579 510.096 638.683 510.096C640.587 510.096 642.019 510.584 642.979 511.56C643.955 512.536 644.443 513.808 644.443 515.376C644.443 517.088 643.859 518.68 642.691 520.152C641.523 521.608 640.035 523.032 638.227 524.424H644.707V527.76H632.659V524.712ZM657.698 513.552L651.674 528H647.474L653.57 514.008H646.106V510.504H657.698V513.552Z" fill="white"/>
<path d="M583.269 480C582.128 478 583.572 475.514 585.874 475.514H617.162C619.465 475.514 620.909 478 619.768 480L604.124 507.43C602.973 509.449 600.063 509.449 598.912 507.43L583.269 480Z" fill="#FC6238"/>
<circle cx="601.519" cy="473.519" r="22.5187" fill="#FC6238"/>
<path d="M588.299 479.712C588.843 479.28 589.091 479.08 589.043 479.112C590.611 477.816 591.843 476.752 592.739 475.92C593.651 475.088 594.419 474.216 595.043 473.304C595.667 472.392 595.979 471.504 595.979 470.64C595.979 469.984 595.827 469.472 595.523 469.104C595.219 468.736 594.763 468.552 594.155 468.552C593.547 468.552 593.067 468.784 592.715 469.248C592.379 469.696 592.211 470.336 592.211 471.168H588.251C588.283 469.808 588.571 468.672 589.115 467.76C589.675 466.848 590.403 466.176 591.299 465.744C592.211 465.312 593.219 465.096 594.323 465.096C596.227 465.096 597.659 465.584 598.619 466.56C599.595 467.536 600.083 468.808 600.083 470.376C600.083 472.088 599.499 473.68 598.331 475.152C597.163 476.608 595.675 478.032 593.867 479.424H600.347V482.76H588.299V479.712ZM605.034 473.592C603.53 472.792 602.778 471.536 602.778 469.824C602.778 468.96 603.002 468.176 603.45 467.472C603.898 466.752 604.578 466.184 605.49 465.768C606.402 465.336 607.522 465.12 608.85 465.12C610.178 465.12 611.29 465.336 612.186 465.768C613.098 466.184 613.778 466.752 614.226 467.472C614.674 468.176 614.898 468.96 614.898 469.824C614.898 470.688 614.69 471.44 614.274 472.08C613.874 472.72 613.33 473.224 612.642 473.592C613.506 474.008 614.17 474.584 614.634 475.32C615.098 476.04 615.33 476.888 615.33 477.864C615.33 479 615.042 479.984 614.466 480.816C613.89 481.632 613.106 482.256 612.114 482.688C611.138 483.12 610.05 483.336 608.85 483.336C607.65 483.336 606.554 483.12 605.562 482.688C604.586 482.256 603.81 481.632 603.234 480.816C602.658 479.984 602.37 479 602.37 477.864C602.37 476.872 602.602 476.016 603.066 475.296C603.53 474.56 604.186 473.992 605.034 473.592ZM610.914 470.448C610.914 469.792 610.722 469.288 610.338 468.936C609.97 468.568 609.474 468.384 608.85 468.384C608.226 468.384 607.722 468.568 607.338 468.936C606.97 469.304 606.786 469.816 606.786 470.472C606.786 471.096 606.978 471.592 607.362 471.96C607.746 472.312 608.242 472.488 608.85 472.488C609.458 472.488 609.954 472.304 610.338 471.936C610.722 471.568 610.914 471.072 610.914 470.448ZM608.85 475.368C608.098 475.368 607.49 475.576 607.026 475.992C606.562 476.392 606.33 476.952 606.33 477.672C606.33 478.344 606.554 478.896 607.002 479.328C607.466 479.76 608.082 479.976 608.85 479.976C609.618 479.976 610.218 479.76 610.65 479.328C611.098 478.896 611.322 478.344 611.322 477.672C611.322 476.968 611.09 476.408 610.626 475.992C610.178 475.576 609.586 475.368 608.85 475.368Z" fill="white"/>
<path d="M531.269 445C530.128 443 531.572 440.514 533.874 440.514H565.162C567.465 440.514 568.909 443 567.768 445L552.124 472.43C550.973 474.449 548.063 474.449 546.912 472.43L531.269 445Z" fill="#FC6238"/>
<circle cx="549.519" cy="438.519" r="22.5187" fill="#FC6238"/>
<path d="M536.431 444.712C536.975 444.28 537.223 444.08 537.175 444.112C538.743 442.816 539.975 441.752 540.871 440.92C541.783 440.088 542.551 439.216 543.175 438.304C543.799 437.392 544.111 436.504 544.111 435.64C544.111 434.984 543.959 434.472 543.655 434.104C543.351 433.736 542.895 433.552 542.287 433.552C541.679 433.552 541.199 433.784 540.847 434.248C540.511 434.696 540.343 435.336 540.343 436.168H536.383C536.415 434.808 536.703 433.672 537.247 432.76C537.807 431.848 538.535 431.176 539.431 430.744C540.343 430.312 541.351 430.096 542.455 430.096C544.359 430.096 545.791 430.584 546.751 431.56C547.727 432.536 548.215 433.808 548.215 435.376C548.215 437.088 547.631 438.68 546.463 440.152C545.295 441.608 543.807 443.032 541.999 444.424H548.479V447.76H536.431V444.712ZM558.95 435.208C558.822 434.616 558.598 434.176 558.278 433.888C557.958 433.584 557.502 433.432 556.91 433.432C555.998 433.432 555.342 433.832 554.942 434.632C554.542 435.416 554.334 436.664 554.318 438.376C554.67 437.816 555.174 437.376 555.83 437.056C556.502 436.736 557.238 436.576 558.038 436.576C559.606 436.576 560.862 437.072 561.806 438.064C562.766 439.056 563.246 440.44 563.246 442.216C563.246 443.384 563.006 444.408 562.526 445.288C562.062 446.168 561.374 446.856 560.462 447.352C559.566 447.848 558.502 448.096 557.27 448.096C554.806 448.096 553.094 447.328 552.134 445.792C551.174 444.24 550.694 442.016 550.694 439.12C550.694 436.08 551.198 433.824 552.206 432.352C553.23 430.864 554.862 430.12 557.102 430.12C558.302 430.12 559.31 430.36 560.126 430.84C560.958 431.304 561.582 431.92 561.998 432.688C562.43 433.456 562.686 434.296 562.766 435.208H558.95ZM557.054 439.816C556.366 439.816 555.79 440.024 555.326 440.44C554.878 440.84 554.654 441.416 554.654 442.168C554.654 442.936 554.862 443.536 555.278 443.968C555.71 444.4 556.318 444.616 557.102 444.616C557.806 444.616 558.358 444.408 558.758 443.992C559.174 443.56 559.382 442.976 559.382 442.24C559.382 441.488 559.182 440.896 558.782 440.464C558.382 440.032 557.806 439.816 557.054 439.816Z" fill="white"/>
<path d="M630.269 441C629.128 439 630.572 436.514 632.874 436.514H664.162C666.465 436.514 667.909 439 666.768 441L651.124 468.43C649.973 470.449 647.063 470.449 645.912 468.43L630.269 441Z" fill="#FC6238"/>
<circle cx="648.519" cy="434.519" r="22.5187" fill="#FC6238"/>
<path d="M635.276 440.712C635.82 440.28 636.068 440.08 636.02 440.112C637.588 438.816 638.82 437.752 639.716 436.92C640.628 436.088 641.396 435.216 642.02 434.304C642.644 433.392 642.956 432.504 642.956 431.64C642.956 430.984 642.804 430.472 642.5 430.104C642.196 429.736 641.74 429.552 641.132 429.552C640.524 429.552 640.044 429.784 639.692 430.248C639.356 430.696 639.188 431.336 639.188 432.168H635.228C635.26 430.808 635.548 429.672 636.092 428.76C636.652 427.848 637.38 427.176 638.276 426.744C639.188 426.312 640.196 426.096 641.3 426.096C643.204 426.096 644.636 426.584 645.596 427.56C646.572 428.536 647.06 429.808 647.06 431.376C647.06 433.088 646.476 434.68 645.308 436.152C644.14 437.608 642.652 439.032 640.844 440.424H647.324V443.76H635.276V440.712ZM661.467 430.056H653.979V433.368C654.299 433.016 654.747 432.728 655.323 432.504C655.899 432.28 656.523 432.168 657.195 432.168C658.395 432.168 659.387 432.44 660.171 432.984C660.971 433.528 661.555 434.232 661.923 435.096C662.291 435.96 662.475 436.896 662.475 437.904C662.475 439.776 661.947 441.264 660.891 442.368C659.835 443.456 658.347 444 656.427 444C655.147 444 654.035 443.784 653.091 443.352C652.147 442.904 651.419 442.288 650.907 441.504C650.395 440.72 650.115 439.816 650.067 438.792H654.075C654.171 439.288 654.403 439.704 654.771 440.04C655.139 440.36 655.643 440.52 656.283 440.52C657.035 440.52 657.595 440.28 657.963 439.8C658.331 439.32 658.515 438.68 658.515 437.88C658.515 437.096 658.323 436.496 657.939 436.08C657.555 435.664 656.995 435.456 656.259 435.456C655.715 435.456 655.267 435.592 654.915 435.864C654.563 436.12 654.331 436.464 654.219 436.896H650.259V426.456H661.467V430.056Z" fill="white"/>
<path d="M387.269 381C386.128 379 387.572 376.514 389.874 376.514H421.162C423.465 376.514 424.909 379 423.768 381L408.124 408.43C406.973 410.449 404.063 410.449 402.912 408.43L387.269 381Z" fill="#FC6238"/>
<circle cx="405.519" cy="374.519" r="22.5187" fill="#FC6238"/>
<path d="M400.071 380.712C400.615 380.28 400.863 380.08 400.815 380.112C402.383 378.816 403.615 377.752 404.511 376.92C405.423 376.088 406.191 375.216 406.815 374.304C407.439 373.392 407.751 372.504 407.751 371.64C407.751 370.984 407.599 370.472 407.295 370.104C406.991 369.736 406.535 369.552 405.927 369.552C405.319 369.552 404.839 369.784 404.487 370.248C404.151 370.696 403.983 371.336 403.983 372.168H400.023C400.055 370.808 400.343 369.672 400.887 368.76C401.447 367.848 402.175 367.176 403.071 366.744C403.983 366.312 404.991 366.096 406.095 366.096C407.999 366.096 409.431 366.584 410.391 367.56C411.367 368.536 411.855 369.808 411.855 371.376C411.855 373.088 411.271 374.68 410.103 376.152C408.935 377.608 407.447 379.032 405.639 380.424H412.119V383.76H400.071V380.712Z" fill="white"/>
<path d="M406.269 586C405.128 584 406.572 581.514 408.874 581.514H440.162C442.465 581.514 443.909 584 442.768 586L427.124 613.43C425.973 615.449 423.063 615.449 421.912 613.43L406.269 586Z" fill="#FC6238"/>
<circle cx="424.519" cy="579.519" r="22.5187" fill="#FC6238"/>
<path d="M418.958 576.424C419.022 574.712 419.582 573.392 420.638 572.464C421.694 571.536 423.126 571.072 424.934 571.072C426.134 571.072 427.158 571.28 428.006 571.696C428.87 572.112 429.518 572.68 429.95 573.4C430.398 574.12 430.622 574.928 430.622 575.824C430.622 576.88 430.358 577.744 429.83 578.416C429.302 579.072 428.686 579.52 427.982 579.76V579.856C428.894 580.16 429.614 580.664 430.142 581.368C430.67 582.072 430.934 582.976 430.934 584.08C430.934 585.072 430.702 585.952 430.238 586.72C429.79 587.472 429.126 588.064 428.246 588.496C427.382 588.928 426.35 589.144 425.15 589.144C423.23 589.144 421.694 588.672 420.542 587.728C419.406 586.784 418.806 585.36 418.742 583.456H422.726C422.742 584.16 422.942 584.72 423.326 585.136C423.71 585.536 424.27 585.736 425.006 585.736C425.63 585.736 426.11 585.56 426.446 585.208C426.798 584.84 426.974 584.36 426.974 583.768C426.974 583 426.726 582.448 426.23 582.112C425.75 581.76 424.974 581.584 423.902 581.584H423.134V578.248H423.902C424.718 578.248 425.374 578.112 425.87 577.84C426.382 577.552 426.638 577.048 426.638 576.328C426.638 575.752 426.478 575.304 426.158 574.984C425.838 574.664 425.398 574.504 424.838 574.504C424.23 574.504 423.774 574.688 423.47 575.056C423.182 575.424 423.014 575.88 422.966 576.424H418.958Z" fill="white"/>
</g>
<defs>
<filter id="filter0_d" x="0" y="0" width="959.037" height="1120.94" filterUnits="userSpaceOnUse" color-interpolation-filters="sRGB">
<feFlood flood-opacity="0" result="BackgroundImageFix"/>
<feColorMatrix in="SourceAlpha" type="matrix" values="0 0 0 0 0 0 0 0 0 0 0 0 0 0 0 0 0 0 127 0" result="hardAlpha"/>
<feOffset dy="4"/>
<feGaussianBlur stdDeviation="2"/>
<feComposite in2="hardAlpha" operator="out"/>
<feColorMatrix type="matrix" values="0 0 0 0 0 0 0 0 0 0 0 0 0 0 0 0 0 0 0.25 0"/>
<feBlend mode="normal" in2="BackgroundImageFix" result="effect1_dropShadow"/>
<feBlend mode="normal" in="SourceGraphic" in2="effect1_dropShadow" result="shape"/>
</filter>
</defs>
</svg>
